<svg width="31" height="31" viewBox="0 0 31 31" fill="none" xmlns="http://www.w3.org/2000/svg">
<circle cx="15.0183" cy="15.1816" r="15" fill="#8247E5"/>
<path d="M19.7766 12.0296C19.4385 11.8371 19.0037 11.8371 18.6172 12.0296L15.912 13.6176L14.0763 14.6282L11.4194 16.2163C11.0812 16.4087 10.6465 16.4087 10.26 16.2163L8.18275 14.9651C7.8446 14.7726 7.60306 14.3876 7.60306 13.9545V11.5484C7.60306 11.1634 7.79629 10.7784 8.18275 10.5378L10.26 9.33475C10.5981 9.14226 11.0329 9.14226 11.4194 9.33475L13.4966 10.5859C13.8348 10.7784 14.0763 11.1634 14.0763 11.5965V13.1845L15.912 12.1258V10.4897C15.912 10.1047 15.7188 9.71973 15.3323 9.47912L11.4677 7.21737C11.1295 7.02488 10.6948 7.02488 10.3083 7.21737L6.34706 9.52724C5.9606 9.71973 5.76736 10.1047 5.76736 10.4897V15.0132C5.76736 15.3982 5.9606 15.7832 6.34706 16.0238L10.26 18.2855C10.5981 18.478 11.0329 18.478 11.4194 18.2855L14.0763 16.7456L15.912 15.6869L18.5689 14.147C18.9071 13.9545 19.3419 13.9545 19.7283 14.147L21.8056 15.35C22.1437 15.5425 22.3852 15.9275 22.3852 16.3606V18.7667C22.3852 19.1517 22.192 19.5367 21.8056 19.7773L19.7766 20.9804C19.4385 21.1729 19.0037 21.1729 18.6172 20.9804L16.54 19.7773C16.2018 19.5848 15.9603 19.1998 15.9603 18.7667V17.2268L14.1246 18.2855V19.8736C14.1246 20.2585 14.3178 20.6435 14.7043 20.8841L18.6172 23.1459C18.9554 23.3384 19.3902 23.3384 19.7766 23.1459L23.6896 20.8841C24.0277 20.6916 24.2693 20.3067 24.2693 19.8736V15.3019C24.2693 14.9169 24.076 14.532 23.6896 14.2914L19.7766 12.0296Z" fill="white"/>
<g clip-path="url(#clip0_1_213)">
<path d="M15.0188 2.77716C21.8577 2.77716 27.4237 8.34186 27.4237 15.1821C27.4237 22.0223 21.8581 27.5856 15.0188 27.5856C8.17953 27.5856 2.61256 22.0214 2.61256 15.1821C2.61256 8.34277 8.17862 2.77716 15.0188 2.77716ZM15.0188 1.31677C7.36076 1.31677 1.15308 7.524 1.15308 15.1821C1.15308 22.8401 7.36076 29.0464 15.0188 29.0464C22.6769 29.0464 28.8837 22.8392 28.8837 15.1821C28.8837 7.52492 22.6764 1.31677 15.0188 1.31677Z" fill="url(#paint0_linear_1_213)"/>
<path d="M28.079 15.2157C28.079 22.3355 22.3076 28.107 15.1887 28.107C8.06976 28.107 2.29605 22.3355 2.29605 15.2157C2.29605 8.09593 8.06794 2.32404 15.1887 2.32404C22.3094 2.32404 28.079 8.09593 28.079 15.2157Z" fill="url(#paint1_linear_1_213)"/>
<path opacity="0.6" d="M27.0612 15.2308C27.0612 21.7882 21.7452 27.1033 15.1887 27.1033C8.63216 27.1033 3.31519 21.7877 3.31519 15.2308C3.31519 8.67382 8.63079 3.35822 15.1887 3.35822C21.7465 3.35822 27.0612 8.67428 27.0612 15.2308Z" fill="url(#paint2_radial_1_213)"/>
<path d="M19.8549 12.0378C19.5168 11.8297 19.077 11.8297 18.7053 12.0378L16.0675 13.6345L14.2752 14.6756L11.6373 16.2724C11.2992 16.4805 10.8594 16.4805 10.4877 16.2724L8.39086 15.0227C8.05274 14.8146 7.8158 14.4324 7.8158 14.0162V11.5518C7.8158 11.1351 8.01867 10.7535 8.39086 10.5453L10.4537 9.33021C10.7918 9.12209 11.2316 9.12209 11.6033 9.33021L13.666 10.5453C14.0042 10.7535 14.2411 11.1356 14.2411 11.5518V13.1486L16.0334 12.0724V10.4756C16.0334 10.0589 15.8305 9.67724 15.4583 9.46912L11.6368 7.1783C11.2987 6.97019 10.8589 6.97019 10.4872 7.1783L6.59804 9.46912C6.22585 9.67724 6.02298 10.0594 6.02298 10.4756V15.0924C6.02298 15.5086 6.22585 15.8908 6.59804 16.0989L10.4872 18.3897C10.8253 18.5978 11.2651 18.5978 11.6368 18.3897L14.2747 16.8275L16.067 15.7513L18.7048 14.1892C19.0429 13.981 19.4827 13.981 19.8544 14.1892L21.9172 15.4043C22.2553 15.6124 22.4923 15.9946 22.4923 16.4108V18.8751C22.4923 19.2919 22.2894 19.6735 21.9172 19.8816L19.8544 21.1314C19.5163 21.3395 19.0765 21.3395 18.7048 21.1314L16.642 19.9162C16.3039 19.7081 16.067 19.3265 16.067 18.9097V17.313L14.2747 18.3892V19.9859C14.2747 20.4027 14.4775 20.7843 14.8497 20.9924L18.7389 23.2833C19.077 23.4914 19.5168 23.4914 19.8885 23.2833L23.7776 20.9924C24.1158 20.7843 24.3522 20.4027 24.3522 19.9859V15.3692C24.3522 14.9524 24.1493 14.5708 23.7776 14.3627L19.8544 12.0367L19.8549 12.0378Z" fill="#7950DD"/>
</g>
<defs>
<linearGradient id="paint0_linear_1_213" x1="-2.5168" y1="-5.81761" x2="35.8359" y2="40.1112" gradientUnits="userSpaceOnUse">
<stop stop-color="#A5A7AA"/>
<stop offset="0.26" stop-color="#C3C4C6"/>
<stop offset="0.54" stop-color="#DBDCDD"/>
<stop offset="0.79" stop-color="#E9EBEB"/>
<stop offset="1" stop-color="#EFF0F0"/>
</linearGradient>
<linearGradient id="paint1_linear_1_213" x1="-0.117443" y1="-3.11315" x2="28.9087" y2="31.6471" gradientUnits="userSpaceOnUse">
<stop stop-color="#FEFEFE"/>
<stop offset="0.17" stop-color="#FAFAFA"/>
<stop offset="0.33" stop-color="#EFEFEF"/>
<stop offset="0.48" stop-color="#DDDDDE"/>
<stop offset="0.62" stop-color="#C3C4C4"/>
<stop offset="0.76" stop-color="#A2A3A4"/>
<stop offset="0.9" stop-color="#7A7B7D"/>
<stop offset="1" stop-color="#58595B"/>
</linearGradient>
<radialGradient id="paint2_radial_1_213" cx="0" cy="0" r="1" gradientUnits="userSpaceOnUse" gradientTransform="translate(15.1882 15.2308) scale(11.8726)">
<stop stop-color="white"/>
<stop offset="0.52" stop-color="#FDFDFD"/>
<stop offset="0.7" stop-color="#F6F6F6"/>
<stop offset="0.84" stop-color="#EAEAEA"/>
<stop offset="0.94" stop-color="#D9D9D9"/>
<stop offset="1" stop-color="#CDCDCD"/>
</radialGradient>
<clipPath id="clip0_1_213">
<rect width="27.7306" height="27.7297" fill="white" transform="translate(1.15308 1.31677)"/>
</clipPath>
</defs>
</svg>
