<svg width="92" height="68" viewBox="0 0 92 68" fill="none" xmlns="http://www.w3.org/2000/svg">
<path d="M26.8889 67.9363L26.885 68.9363H26.8889V67.9363ZM12.6986 63.8773L12.1356 64.7038L12.1377 64.7052L12.6986 63.8773ZM3.58989 52.2118L2.66601 52.5945L2.66738 52.5978L3.58989 52.2118ZM0.457786 33.8347L1.45779 33.8377V33.8347H0.457786ZM3.62185 15.5854L2.70109 15.1952L2.6997 15.1986L3.62185 15.5854ZM12.7305 4.11168L13.2842 4.94443L13.2852 4.94373L12.7305 4.11168ZM41.0153 4.11168L40.4585 4.94235L40.4606 4.94373L41.0153 4.11168ZM50.1559 15.6174L49.2352 16.0075L49.2358 16.0089L50.1559 15.6174ZM53.32 33.8347L52.32 33.8317V33.8347H53.32ZM50.124 52.2438L49.2015 51.8578L49.2001 51.8611L50.124 52.2438ZM41.0473 63.9093L41.6102 64.7358L41.6102 64.7358L41.0473 63.9093ZM35.8697 50.8056L36.7298 51.3158L36.7298 51.3158L35.8697 50.8056ZM39.1936 33.8347L38.1936 33.8347L38.1936 33.8375L39.1936 33.8347ZM37.6595 21.4341L36.7025 21.7243L36.7042 21.7299L37.6595 21.4341ZM33.3768 13.9874L32.705 14.7281L32.7093 14.732L33.3768 13.9874ZM17.94 17.0875L17.0825 16.573L17.0825 16.573L17.94 17.0875ZM14.5522 33.8347L13.5522 33.8318V33.8347H14.5522ZM16.0544 46.427L15.0959 46.7122L15.0981 46.7194L16.0544 46.427ZM20.369 53.9696L19.6967 54.71L19.7015 54.7142L20.369 53.9696ZM26.8928 66.9363C21.5639 66.9156 17.0346 65.6068 13.2594 63.0494L12.1377 64.7052C16.2887 67.5172 21.2196 68.9143 26.885 68.9362L26.8928 66.9363ZM13.2615 63.0508C9.50365 60.4914 6.58041 56.7684 4.51239 51.8258L2.66738 52.5978C4.86073 57.8399 8.00994 61.8939 12.1356 64.7038L13.2615 63.0508ZM4.51376 51.8291C2.46771 46.8897 1.43676 40.9022 1.45778 33.8377L-0.54221 33.8317C-0.563798 41.0854 0.493321 47.3493 2.66601 52.5945L4.51376 51.8291ZM1.45779 33.8347C1.45779 26.7907 2.49922 20.8466 4.544 15.9722L2.6997 15.1986C0.525723 20.381 -0.542214 26.6031 -0.542214 33.8347H1.45779ZM4.5426 15.9756C6.60894 11.099 9.52942 7.44083 13.2842 4.94443L12.1769 3.27894C8.04809 6.02401 4.89612 10.015 2.7011 15.1953L4.5426 15.9756ZM13.2852 4.94373C17.0604 2.42692 21.5801 1.14861 26.8889 1.14861V-0.851387C21.246 -0.851387 16.3267 0.512356 12.1758 3.27963L13.2852 4.94373ZM26.8889 1.14861C32.1978 1.14861 36.7057 2.42696 40.4585 4.94235L41.5721 3.28102C37.4414 0.512317 32.5317 -0.851387 26.8889 -0.851387V1.14861ZM40.4606 4.94373C44.2382 7.46215 47.1693 11.1319 49.2352 16.0075L51.0767 15.2272C48.8813 10.046 45.7185 6.0453 41.57 3.27963L40.4606 4.94373ZM49.2358 16.0089C51.2996 20.8589 52.341 26.7892 52.32 33.8317L54.32 33.8377C54.3416 26.6046 53.2736 20.39 51.0761 15.2258L49.2358 16.0089ZM52.32 33.8347C52.32 40.9206 51.2681 46.9185 49.2015 51.8578L51.0465 52.6298C53.2412 47.3844 54.32 41.1096 54.32 33.8347H52.32ZM49.2001 51.8611C47.1534 56.8022 44.2412 60.524 40.4844 63.0828L41.6102 64.7358C45.7368 61.9252 48.8758 57.87 51.0479 52.6265L49.2001 51.8611ZM40.4844 63.0828C36.7329 65.6378 32.2168 66.9363 26.8889 66.9363V68.9363C32.5553 68.9363 37.4782 67.55 41.6102 64.7358L40.4844 63.0828ZM26.8889 57.4625C31.0574 57.4625 34.3486 55.3298 36.7298 51.3158L35.0097 50.2954C32.9165 53.8239 30.2204 55.4625 26.8889 55.4625V57.4625ZM36.7298 51.3158C39.1037 47.314 40.2151 41.4409 40.1936 33.8319L38.1936 33.8375C38.2147 41.3137 37.1102 46.7545 35.0097 50.2954L36.7298 51.3158ZM40.1936 33.8347C40.1936 28.8097 39.677 24.5684 38.6147 21.1383L36.7042 21.7299C37.6875 24.9049 38.1936 28.9307 38.1936 33.8347H40.1936ZM38.6165 21.1439C37.5816 17.7311 36.0771 15.0653 34.0444 13.2428L32.7093 14.732C34.3839 16.2333 35.7346 18.5321 36.7025 21.7243L38.6165 21.1439ZM34.0486 13.2467C32.0307 11.4165 29.628 10.4945 26.8889 10.4945V12.4945C29.1356 12.4945 31.0582 13.2345 32.705 14.7281L34.0486 13.2467ZM26.8889 10.4945C22.745 10.4945 19.465 12.6023 17.0825 16.573L18.7975 17.602C20.8895 14.1153 23.5754 12.4945 26.8889 12.4945V10.4945ZM17.0825 16.573C14.7081 20.5305 13.5738 26.3281 13.5523 33.8318L15.5522 33.8376C15.5734 26.4692 16.6976 21.1019 18.7975 17.602L17.0825 16.573ZM13.5522 33.8347C13.5522 38.9217 14.0579 43.2227 15.0959 46.7121L17.0129 46.1419C16.048 42.8984 15.5522 38.8045 15.5522 33.8347H13.5522ZM15.0981 46.7194C16.1535 50.1716 17.667 52.8669 19.6968 54.71L21.0413 53.2293C19.3636 51.7059 18.0007 49.3728 17.0107 46.1346L15.0981 46.7194ZM19.7015 54.7142C21.7389 56.5409 24.15 57.4625 26.8889 57.4625V55.4625C24.642 55.4625 22.7065 54.7223 21.0366 53.2251L19.7015 54.7142ZM91.6643 1.0435H92.6643V0.0434995H91.6643V1.0435ZM91.6643 66.498V67.498H92.6643V66.498H91.6643ZM77.8255 66.498H76.8255V67.498H77.8255V66.498ZM77.8255 14.1792H78.8255V13.1792H77.8255V14.1792ZM77.442 14.1792V13.1792H77.1545L76.9108 13.3319L77.442 14.1792ZM62.4526 23.5755H61.4526V25.3826L62.9838 24.4227L62.4526 23.5755ZM62.4526 11.3027L61.9177 10.4578L61.4526 10.7523V11.3027H62.4526ZM78.6565 1.0435V0.0434995H78.3665L78.1215 0.198605L78.6565 1.0435ZM90.6643 1.0435V66.498H92.6643V1.0435H90.6643ZM91.6643 65.498H77.8255V67.498H91.6643V65.498ZM78.8255 66.498V14.1792H76.8255V66.498H78.8255ZM77.8255 13.1792H77.442V15.1792H77.8255V13.1792ZM76.9108 13.3319L61.9215 22.7282L62.9838 24.4227L77.9731 15.0264L76.9108 13.3319ZM63.4526 23.5755V11.3027H61.4526V23.5755H63.4526ZM62.9876 12.1476L79.1914 1.88839L78.1215 0.198605L61.9177 10.4578L62.9876 12.1476ZM78.6565 2.0435H91.6643V0.0434995H78.6565V2.0435Z" fill="#E5FD57"/>
</svg>
