<svg width="110" height="69" viewBox="0 0 110 69" fill="none" xmlns="http://www.w3.org/2000/svg">
<path d="M26.8086 68.6323L26.8047 69.6323H26.8086V68.6323ZM12.6182 64.5734L12.0553 65.3999L12.0574 65.4013L12.6182 64.5734ZM3.50957 52.9079L2.58568 53.2906L2.58706 53.2939L3.50957 52.9079ZM0.377464 34.5307L1.37746 34.5337V34.5307H0.377464ZM3.54153 16.2814L2.62077 15.8913L2.61938 15.8946L3.54153 16.2814ZM12.6502 4.80773L13.2039 5.64047L13.2049 5.63978L12.6502 4.80773ZM40.935 4.80773L40.3782 5.6384L40.3803 5.63978L40.935 4.80773ZM50.0756 16.3134L49.1549 16.7036L49.1555 16.705L50.0756 16.3134ZM53.2397 34.5307L52.2397 34.5278V34.5307H53.2397ZM50.0437 52.9398L49.1211 52.5538L49.1198 52.5571L50.0437 52.9398ZM40.967 64.6053L41.5299 65.4318L40.967 64.6053ZM35.7894 51.5016L36.6495 52.0118L35.7894 51.5016ZM39.1133 34.5307H38.1133L38.1133 34.5336L39.1133 34.5307ZM37.5792 22.1302L36.6222 22.4204L36.6239 22.426L37.5792 22.1302ZM33.2965 14.6834L32.6247 15.4242L32.629 15.428L33.2965 14.6834ZM17.8597 17.7836L17.0022 17.2691L17.8597 17.7836ZM14.4719 34.5307L13.4719 34.5279V34.5307H14.4719ZM15.9741 47.1231L15.0155 47.4082L15.0177 47.4154L15.9741 47.1231ZM20.2887 54.6657L19.6164 55.406L19.6211 55.4103L20.2887 54.6657ZM26.8124 67.6323C21.4836 67.6117 16.9543 66.3028 13.1791 63.7454L12.0574 65.4013C16.2083 68.2132 21.1393 69.6103 26.8047 69.6323L26.8124 67.6323ZM13.1812 63.7468C9.42332 61.1875 6.50009 57.4644 4.43207 52.5219L2.58706 53.2939C4.78041 58.536 7.92962 62.5899 12.0553 65.3999L13.1812 63.7468ZM4.43344 52.5252C2.38738 47.5857 1.35643 41.5982 1.37746 34.5337L-0.622532 34.5278C-0.64412 41.7815 0.412999 48.0454 2.58569 53.2906L4.43344 52.5252ZM1.37746 34.5307C1.37746 27.4867 2.4189 21.5427 4.46368 16.6683L2.61938 15.8946C0.4454 21.077 -0.622536 27.2992 -0.622536 34.5307H1.37746ZM4.46228 16.6716C6.52862 11.795 9.44909 8.13688 13.2039 5.64047L12.0965 3.97499C7.96776 6.72005 4.8158 10.711 2.62077 15.8913L4.46228 16.6716ZM13.2049 5.63978C16.9801 3.12296 21.4998 1.84466 26.8086 1.84466V-0.155342C21.1657 -0.155342 16.2464 1.2084 12.0955 3.97568L13.2049 5.63978ZM26.8086 1.84466C32.1175 1.84466 36.6254 3.123 40.3782 5.6384L41.4918 3.97706C37.361 1.20836 32.4513 -0.155342 26.8086 -0.155342V1.84466ZM40.3803 5.63978C44.1579 8.1582 47.0889 11.8279 49.1549 16.7036L50.9964 15.9233C48.8009 10.7421 45.6382 6.74135 41.4897 3.97568L40.3803 5.63978ZM49.1555 16.705C51.2193 21.555 52.2607 27.4853 52.2397 34.5278L54.2397 34.5337C54.2613 27.3006 53.1933 21.086 50.9958 15.9219L49.1555 16.705ZM52.2397 34.5307C52.2397 41.6166 51.1878 47.6145 49.1212 52.5538L50.9662 53.3258C53.1609 48.0805 54.2397 41.8056 54.2397 34.5307H52.2397ZM49.1198 52.5571C47.073 57.4983 44.1609 61.2201 40.404 63.7788L41.5299 65.4318C45.6565 62.6213 48.7955 58.5661 50.9675 53.3225L49.1198 52.5571ZM40.404 63.7788C36.6525 66.3339 32.1365 67.6323 26.8086 67.6323V69.6323C32.475 69.6323 37.3978 68.2461 41.5299 65.4318L40.404 63.7788ZM26.8086 58.1586C30.9771 58.1586 34.2682 56.0259 36.6495 52.0118L34.9293 50.9914C32.8361 54.52 30.14 56.1586 26.8086 56.1586V58.1586ZM36.6495 52.0118C39.0234 48.0101 40.1348 42.137 40.1133 34.5279L38.1133 34.5336C38.1344 42.0097 37.0299 47.4505 34.9293 50.9914L36.6495 52.0118ZM40.1133 34.5307C40.1133 29.5057 39.5966 25.2645 38.5344 21.8344L36.6239 22.426C37.6072 25.601 38.1133 29.6268 38.1133 34.5307H40.1133ZM38.5361 21.84C37.5013 18.4271 35.9968 15.7613 33.964 13.9389L32.629 15.428C34.3036 16.9294 35.6542 19.2281 36.6222 22.4203L38.5361 21.84ZM33.9683 13.9427C31.9504 12.1125 29.5477 11.1905 26.8086 11.1905V13.1905C29.0552 13.1905 30.9778 13.9305 32.6247 15.4242L33.9683 13.9427ZM26.8086 11.1905C22.6647 11.1905 19.3846 13.2984 17.0022 17.2691L18.7172 18.2981C20.8092 14.8114 23.4951 13.1905 26.8086 13.1905V11.1905ZM17.0022 17.2691C14.6277 21.2266 13.4934 27.0241 13.4719 34.5279L15.4719 34.5336C15.493 27.1652 16.6173 21.798 18.7172 18.2981L17.0022 17.2691ZM13.4719 34.5307C13.4719 39.6178 13.9776 43.9188 15.0156 47.4082L16.9325 46.8379C15.9677 43.5944 15.4719 39.5005 15.4719 34.5307H13.4719ZM15.0177 47.4154C16.0732 50.8676 17.5867 53.5629 19.6164 55.406L20.9609 53.9254C19.2833 52.402 17.9204 50.0689 16.9304 46.8307L15.0177 47.4154ZM19.6211 55.4103C21.6586 57.2369 24.0697 58.1586 26.8086 58.1586V56.1586C24.5617 56.1586 22.6262 55.4183 20.9562 53.9211L19.6211 55.4103ZM63.1074 67.1941H62.1074V68.1941H63.1074V67.1941ZM63.1074 57.2225L62.428 56.4887L62.1074 56.7856V57.2225H63.1074ZM86.4064 35.6493L87.0858 36.3831L87.0939 36.3756L87.1018 36.368L86.4064 35.6493ZM91.3922 30.4718L90.6448 29.8074L90.6396 29.8133L91.3922 30.4718ZM94.4923 25.9654L95.3945 26.3969L95.3969 26.3918L94.4923 25.9654ZM94.2367 16.1856L93.3872 16.7133L93.3909 16.7191L94.2367 16.1856ZM90.6571 12.9576L90.2049 13.8495L90.215 13.8545L90.6571 12.9576ZM76.8183 16.5052L77.7 16.977L76.8183 16.5052ZM75.6039 21.9064V22.9064H76.6039V21.9064H75.6039ZM62.4682 21.9064H61.4682V22.9064H62.4682V21.9064ZM65.3766 10.7523L66.2284 11.2761L65.3766 10.7523ZM73.5264 3.43343L73.0836 2.53683L73.5264 3.43343ZM97.8482 3.33756L97.4165 4.23962L97.4232 4.24275L97.8482 3.33756ZM105.998 10.177L105.165 10.7303L105.998 10.177ZM107.436 27.5314L106.51 27.1544L106.507 27.1615L107.436 27.5314ZM102.291 35.5535L103.054 36.1997L103.056 36.1969L102.291 35.5535ZM91.8396 46.0684L91.1666 45.3288L91.1529 45.3412L91.1397 45.3541L91.8396 46.0684ZM82.2835 55.4327L81.5836 54.7185L81.2835 55.0126V55.4327H82.2835ZM82.2835 55.8802H81.2835V56.8802H82.2835V55.8802ZM109.769 55.8802H110.769V54.8802H109.769V55.8802ZM109.769 67.1941V68.1941H110.769V67.1941H109.769ZM64.1074 67.1941V57.2225H62.1074V67.1941H64.1074ZM63.7868 57.9563L87.0858 36.3831L85.727 34.9156L62.428 56.4887L63.7868 57.9563ZM87.1018 36.368C89.0968 34.4373 90.7792 32.691 92.1448 31.1303L90.6396 29.8133C89.3206 31.3208 87.6791 33.0262 85.711 34.9307L87.1018 36.368ZM92.1396 31.1362C93.5501 29.5493 94.6421 27.9701 95.3945 26.3969L93.5902 25.5339C92.9364 26.9011 91.9615 28.3261 90.6448 29.8074L92.1396 31.1362ZM95.3969 26.3918C96.1658 24.7607 96.547 23.0056 96.547 21.1394H94.547C94.547 22.7249 94.2251 24.1871 93.5878 25.539L95.3969 26.3918ZM96.547 21.1394C96.547 19.0658 96.073 17.2224 95.0825 15.6521L93.3909 16.7191C94.1475 17.9186 94.547 19.3778 94.547 21.1394H96.547ZM95.0861 15.6579C94.112 14.0898 92.7763 12.8874 91.0993 12.0606L90.215 13.8545C91.5635 14.5193 92.6142 15.4688 93.3872 16.7133L95.0861 15.6579ZM91.1093 12.0657C89.439 11.2188 87.5656 10.807 85.5115 10.807V12.807C87.2927 12.807 88.8496 13.1623 90.2049 13.8495L91.1093 12.0657ZM85.5115 10.807C83.3721 10.807 81.4552 11.2403 79.793 12.1427L80.7471 13.9004C82.0678 13.1834 83.6453 12.807 85.5115 12.807V10.807ZM79.793 12.1427C78.1277 13.0466 76.8374 14.3503 75.9367 16.0333L77.7 16.977C78.4185 15.6345 79.4294 14.6157 80.7471 13.9004L79.793 12.1427ZM75.9367 16.0333C75.0342 17.7195 74.6039 19.6891 74.6039 21.9064H76.6039C76.6039 19.9476 76.9832 18.3164 77.7 16.977L75.9367 16.0333ZM75.6039 20.9064H62.4682V22.9064H75.6039V20.9064ZM63.4682 21.9064C63.4682 17.7792 64.4008 14.2486 66.2284 11.2761L64.5247 10.2286C62.4745 13.5629 61.4682 17.4684 61.4682 21.9064H63.4682ZM66.2284 11.2761C68.0635 8.29162 70.6343 5.97718 73.9693 4.33004L73.0836 2.53683C69.4299 4.3414 66.5675 6.90622 64.5247 10.2286L66.2284 11.2761ZM73.9693 4.33004C77.3043 2.68286 81.1753 1.84466 85.6074 1.84466V-0.155342C80.9202 -0.155342 76.7372 0.732311 73.0836 2.53683L73.9693 4.33004ZM85.6074 1.84466C90.1774 1.84466 94.1044 2.65464 97.4165 4.2396L98.2798 2.43552C94.646 0.696608 90.4124 -0.155342 85.6074 -0.155342V1.84466ZM97.4232 4.24275C100.769 5.81376 103.337 7.97894 105.165 10.7303L106.831 9.62375C104.781 6.53708 101.916 4.1426 98.2732 2.43236L97.4232 4.24275ZM105.165 10.7303C106.987 13.4728 107.906 16.6224 107.906 20.2126H109.906C109.906 16.2601 108.887 12.7194 106.831 9.62375L105.165 10.7303ZM107.906 20.2126C107.906 22.5483 107.444 24.8602 106.51 27.1544L108.362 27.9085C109.389 25.3874 109.906 22.82 109.906 20.2126H107.906ZM106.507 27.1615C105.602 29.4343 103.958 32.016 101.525 34.91L103.056 36.1969C105.567 33.2103 107.353 30.4439 108.365 27.9014L106.507 27.1615ZM101.527 34.9073C99.0952 37.7799 95.6466 41.2522 91.1666 45.3288L92.5127 46.808C97.0242 42.7028 100.543 39.1651 103.054 36.1997L101.527 34.9073ZM91.1397 45.3541L81.5836 54.7185L82.9834 56.147L92.5396 46.7826L91.1397 45.3541ZM81.2835 55.4327V55.8802H83.2835V55.4327H81.2835ZM82.2835 56.8802H109.769V54.8802H82.2835V56.8802ZM108.769 55.8802V67.1941H110.769V55.8802H108.769ZM109.769 66.1941H63.1074V68.1941H109.769V66.1941Z" fill="#E5FD57"/>
</svg>
