<svg width="113" height="69" viewBox="0 0 113 69" fill="none" xmlns="http://www.w3.org/2000/svg">
<path d="M26.8889 68.4481L26.885 69.4481H26.8889V68.4481ZM12.6986 64.3892L12.1356 65.2157L12.1377 65.2171L12.6986 64.3892ZM3.58989 52.7237L2.66601 53.1064L2.66738 53.1096L3.58989 52.7237ZM0.457786 34.3465L1.45779 34.3495V34.3465H0.457786ZM3.62185 16.0972L2.70109 15.7071L2.6997 15.7104L3.62185 16.0972ZM12.7305 4.62352L13.2842 5.45627L13.2852 5.45557L12.7305 4.62352ZM41.0153 4.62352L40.4585 5.45419L40.4606 5.45557L41.0153 4.62352ZM50.1559 16.1292L49.2352 16.5194L49.2358 16.5208L50.1559 16.1292ZM53.32 34.3465L52.32 34.3435V34.3465H53.32ZM50.124 52.7556L49.2015 52.3696L49.2001 52.3729L50.124 52.7556ZM41.0473 64.4211L41.6102 65.2476L41.0473 64.4211ZM35.8697 51.3174L36.7298 51.8276L35.8697 51.3174ZM39.1936 34.3465H38.1936L38.1936 34.3494L39.1936 34.3465ZM37.6595 21.946L36.7025 22.2361L36.7042 22.2418L37.6595 21.946ZM33.3768 14.4992L32.705 15.24L32.7093 15.2438L33.3768 14.4992ZM17.94 17.5994L17.0825 17.0849L17.94 17.5994ZM14.5522 34.3465L13.5522 34.3437V34.3465H14.5522ZM16.0544 46.9389L15.0959 47.224L15.0981 47.2312L16.0544 46.9389ZM20.369 54.4815L19.6967 55.2218L19.7015 55.2261L20.369 54.4815ZM26.8928 67.4481C21.5639 67.4275 17.0346 66.1186 13.2594 63.5612L12.1377 65.2171C16.2887 68.029 21.2196 69.4261 26.885 69.4481L26.8928 67.4481ZM13.2615 63.5626C9.50364 61.0033 6.58041 57.2802 4.51239 52.3377L2.66738 53.1096C4.86073 58.3518 8.00994 62.4057 12.1356 65.2157L13.2615 63.5626ZM4.51376 52.341C2.46771 47.4015 1.43676 41.414 1.45778 34.3495L-0.54221 34.3436C-0.563798 41.5972 0.493321 47.8612 2.66601 53.1064L4.51376 52.341ZM1.45779 34.3465C1.45779 27.3025 2.49922 21.3585 4.544 16.4841L2.6997 15.7104C0.525723 20.8928 -0.542214 27.115 -0.542214 34.3465H1.45779ZM4.5426 16.4874C6.60894 11.6108 9.52942 7.95267 13.2842 5.45627L12.1769 3.79078C8.04809 6.53585 4.89612 10.5268 2.7011 15.7071L4.5426 16.4874ZM13.2852 5.45557C17.0604 2.93876 21.5801 1.66045 26.8889 1.66045V-0.339546C21.246 -0.339546 16.3267 1.0242 12.1758 3.79148L13.2852 5.45557ZM26.8889 1.66045C32.1978 1.66045 36.7057 2.9388 40.4585 5.45419L41.5721 3.79286C37.4414 1.02416 32.5317 -0.339546 26.8889 -0.339546V1.66045ZM40.4606 5.45557C44.2382 7.97399 47.1693 11.6437 49.2352 16.5194L51.0767 15.7391C48.8813 10.5578 45.7185 6.55714 41.57 3.79147L40.4606 5.45557ZM49.2358 16.5208C51.2996 21.3708 52.341 27.3011 52.32 34.3435L54.32 34.3495C54.3416 27.1164 53.2736 20.9018 51.0761 15.7376L49.2358 16.5208ZM52.32 34.3465C52.32 41.4324 51.2681 47.4303 49.2015 52.3696L51.0465 53.1416C53.2412 47.8963 54.32 41.6214 54.32 34.3465H52.32ZM49.2001 52.3729C47.1534 57.314 44.2412 61.0359 40.4844 63.5946L41.6102 65.2476C45.7368 62.437 48.8758 58.3819 51.0479 53.1383L49.2001 52.3729ZM40.4844 63.5946C36.7329 66.1497 32.2168 67.4481 26.8889 67.4481V69.4481C32.5553 69.4481 37.4782 68.0619 41.6102 65.2476L40.4844 63.5946ZM26.8889 57.9744C31.0574 57.9744 34.3486 55.8417 36.7298 51.8276L35.0097 50.8072C32.9165 54.3358 30.2204 55.9744 26.8889 55.9744V57.9744ZM36.7298 51.8276C39.1037 47.8259 40.2151 41.9528 40.1936 34.3437L38.1936 34.3494C38.2147 41.8255 37.1102 47.2663 35.0097 50.8072L36.7298 51.8276ZM40.1936 34.3465C40.1936 29.3215 39.677 25.0803 38.6147 21.6501L36.7042 22.2418C37.6875 25.4168 38.1936 29.4426 38.1936 34.3465H40.1936ZM38.6165 21.6558C37.5816 18.2429 36.0771 15.5771 34.0444 13.7547L32.7093 15.2438C34.3839 16.7452 35.7346 19.0439 36.7025 22.2361L38.6165 21.6558ZM34.0486 13.7585C32.0307 11.9283 29.628 11.0063 26.8889 11.0063V13.0063C29.1356 13.0063 31.0582 13.7463 32.705 15.2399L34.0486 13.7585ZM26.8889 11.0063C22.745 11.0063 19.465 13.1142 17.0825 17.0849L18.7975 18.1139C20.8895 14.6272 23.5754 13.0063 26.8889 13.0063V11.0063ZM17.0825 17.0849C14.7081 21.0424 13.5738 26.8399 13.5522 34.3437L15.5522 34.3494C15.5734 26.981 16.6976 21.6138 18.7975 18.1139L17.0825 17.0849ZM13.5522 34.3465C13.5522 39.4336 14.0579 43.7346 15.0959 47.224L17.0129 46.6537C16.048 43.4102 15.5522 39.3163 15.5522 34.3465H13.5522ZM15.0981 47.2312C16.1535 50.6834 17.667 53.3787 19.6968 55.2218L21.0413 53.7411C19.3636 52.2178 18.0007 49.8847 17.0107 46.6465L15.0981 47.2312ZM19.7015 55.2261C21.7389 57.0527 24.15 57.9744 26.8889 57.9744V55.9744C24.642 55.9744 22.7065 55.2341 21.0366 53.7369L19.7015 55.2261ZM74.6295 65.4438L74.2204 66.3564L74.2267 66.3592L74.6295 65.4438ZM65.8404 58.6043L65.0327 59.1939L65.0376 59.2006L65.8404 58.6043ZM62.5485 48.5049V47.5049H61.5316L61.5487 48.5217L62.5485 48.5049ZM76.4832 48.5049L77.4818 48.4517L77.4313 47.5049H76.4832V48.5049ZM78.0492 52.7237L77.2643 53.3433L77.2703 53.3509L77.2765 53.3584L78.0492 52.7237ZM81.9484 55.5042L81.5707 56.4301L81.9484 55.5042ZM93.0066 55.3764L92.5883 54.4681L93.0066 55.3764ZM96.8099 52.2762L97.6316 52.8461L96.8099 52.2762ZM96.714 43.0717L95.896 43.6469L95.9011 43.6542L95.9064 43.6614L96.714 43.0717ZM92.5592 39.8757L92.1653 40.7948L92.1692 40.7965L92.5592 39.8757ZM80.0627 38.7251H79.0627V39.7251H80.0627V38.7251ZM80.0627 28.5617V27.5617H79.0627V28.5617H80.0627ZM91.6962 27.4751L91.2879 26.5623L91.2834 26.5643L91.6962 27.4751ZM95.4676 24.4708L96.2868 25.0443L96.2912 25.0379L95.4676 24.4708ZM95.6274 15.6178L94.7737 16.1387L94.7789 16.1472L94.7843 16.1557L95.6274 15.6178ZM92.3674 12.6775L91.9147 13.5692L91.9202 13.5719L92.3674 12.6775ZM82.3639 12.6455L82.7548 13.566L82.7653 13.5614L82.3639 12.6455ZM78.6245 15.49L79.4212 16.0944L78.6245 15.49ZM77.1224 19.8366V20.8366H78.0847L78.1216 19.875L77.1224 19.8366ZM63.8589 19.8366L62.859 19.8196L62.8418 20.8366H63.8589V19.8366ZM67.0869 9.865L67.8961 10.4525L67.0869 9.865ZM75.5244 3.12139L75.9407 4.03063L75.9431 4.02951L75.5244 3.12139ZM99.4306 3.12139L99.8665 2.22137L99.4306 3.12139ZM107.325 9.76912L106.495 10.3268L106.5 10.334L107.325 9.76912ZM110.137 19.1015L109.137 19.0953L109.137 19.1073L110.137 19.1015ZM106.718 28.2741L105.989 27.5895L105.985 27.5929L106.718 28.2741ZM97.8007 32.9403L97.6233 31.9561L96.8007 32.1044V32.9403H97.8007ZM97.8007 33.4516H96.8007V34.3315L97.6734 34.4435L97.8007 33.4516ZM108.795 38.4694L108.06 39.1472L108.065 39.1532L108.795 38.4694ZM112.566 48.6328L111.566 48.6275L111.566 48.6385L112.566 48.6328ZM109.338 58.5724L108.538 57.9724L108.535 57.9762L109.338 58.5724ZM100.421 65.4119L100.02 64.496L100.421 65.4119ZM87.3816 66.9048C82.724 66.9048 78.6141 66.1045 75.0322 64.5285L74.2267 66.3592C78.1023 68.0644 82.4938 68.9048 87.3816 68.9048V66.9048ZM75.0385 64.5313C71.4673 62.9304 68.6809 60.7519 66.6432 58.0081L65.0376 59.2006C67.3039 62.2522 70.3768 64.6334 74.2204 66.3563L75.0385 64.5313ZM66.6481 58.0148C64.646 55.2718 63.609 52.108 63.5484 48.4882L61.5487 48.5217C61.6158 52.5297 62.7735 56.0988 65.0327 59.1939L66.6481 58.0148ZM62.5485 49.5049H76.4832V47.5049H62.5485V49.5049ZM75.4846 48.5582C75.5804 50.355 76.1729 51.9608 77.2643 53.3433L78.8341 52.104C78.0079 51.0575 77.5564 49.8509 77.4818 48.4517L75.4846 48.5582ZM77.2765 53.3584C78.3754 54.6962 79.8182 55.7153 81.5707 56.4301L82.3261 54.5783C80.8399 53.9721 79.6833 53.1375 78.822 52.0889L77.2765 53.3584ZM81.5707 56.4301C83.3273 57.1466 85.2801 57.495 87.4136 57.495V55.495C85.4988 55.495 83.8081 55.1828 82.3261 54.5783L81.5707 56.4301ZM87.4136 57.495C89.6412 57.495 91.6526 57.1009 93.4249 56.2847L92.5883 54.4681C91.122 55.1433 89.4047 55.495 87.4136 55.495V57.495ZM93.4249 56.2847C95.1884 55.4726 96.6028 54.3296 97.6316 52.8461L95.9882 51.7063C95.1846 52.8649 94.0635 53.7887 92.5883 54.4681L93.4249 56.2847ZM97.6316 52.8461C98.6725 51.3452 99.1842 49.6197 99.1842 47.7059H97.1842C97.1842 49.2438 96.7796 50.5652 95.9882 51.7063L97.6316 52.8461ZM99.1842 47.7059C99.1842 45.7583 98.6334 44.0046 97.5216 42.482L95.9064 43.6614C96.7548 44.8234 97.1842 46.1592 97.1842 47.7059H99.1842ZM97.532 42.4965C96.4476 40.9542 94.901 39.7815 92.9492 38.9548L92.1692 40.7965C93.8395 41.5039 95.0628 42.4619 95.896 43.6469L97.532 42.4965ZM92.9531 38.9565C91.0102 38.1238 88.739 37.7251 86.1671 37.7251V39.7251C88.5384 39.7251 90.5286 40.0934 92.1653 40.7948L92.9531 38.9565ZM86.1671 37.7251H80.0627V39.7251H86.1671V37.7251ZM81.0627 38.7251V28.5617H79.0627V38.7251H81.0627ZM80.0627 29.5617H86.1671V27.5617H80.0627V29.5617ZM86.1671 29.5617C88.3709 29.5617 90.3591 29.1792 92.1091 28.3859L91.2834 26.5643C89.8373 27.2198 88.1395 27.5617 86.1671 27.5617V29.5617ZM92.1046 28.3879C93.866 27.5999 95.2746 26.4903 96.2868 25.0443L94.6483 23.8974C93.8708 25.0082 92.7651 25.9014 91.2879 26.5623L92.1046 28.3879ZM96.2912 25.0379C97.3117 23.5558 97.8099 21.841 97.8099 19.9325H95.8099C95.8099 21.4757 95.4132 22.7865 94.6439 23.9037L96.2912 25.0379ZM97.8099 19.9325C97.8099 18.1247 97.3732 16.4952 96.4704 15.08L94.7843 16.1557C95.4582 17.2121 95.8099 18.459 95.8099 19.9325H97.8099ZM96.481 15.097C95.6095 13.6687 94.3769 12.5642 92.8146 11.7831L91.9202 13.5719C93.1704 14.1971 94.1111 15.0527 94.7737 16.1387L96.481 15.097ZM92.8201 11.7858C91.2702 10.999 89.4903 10.6228 87.5095 10.6228V12.6228C89.236 12.6228 90.6947 12.9498 91.9147 13.5692L92.8201 11.7858ZM87.5095 10.6228C85.5107 10.6228 83.657 10.9868 81.9624 11.7297L82.7653 13.5614C84.1815 12.9406 85.7582 12.6228 87.5095 12.6228V10.6228ZM81.973 11.7251C80.2718 12.4475 78.88 13.4986 77.8278 14.8856L79.4212 16.0944C80.244 15.0098 81.3451 14.1646 82.7547 13.566L81.973 11.7251ZM77.8278 14.8856C76.7572 16.2968 76.1943 17.9469 76.1231 19.7982L78.1216 19.875C78.1783 18.4024 78.6168 17.1548 79.4212 16.0944L77.8278 14.8856ZM77.1224 18.8366H63.8589V20.8366H77.1224V18.8366ZM64.8587 19.8535C64.9194 16.2742 65.9362 13.1523 67.8961 10.4525L66.2776 9.27754C64.0614 12.3305 62.9262 15.8564 62.859 19.8196L64.8587 19.8535ZM67.8961 10.4525C69.8737 7.72824 72.5451 5.58524 75.9407 4.03063L75.1081 2.21215C71.4298 3.89618 68.4762 6.24892 66.2776 9.27754L67.8961 10.4525ZM75.9431 4.02951C79.3526 2.45745 83.223 1.66045 87.5734 1.66045V-0.339546C82.9749 -0.339546 78.8126 0.504078 75.1057 2.21327L75.9431 4.02951ZM87.5734 1.66045C91.9693 1.66045 95.7674 2.45845 98.9948 4.02141L99.8665 2.22137C96.3183 0.50308 92.2116 -0.339546 87.5734 -0.339546V1.66045ZM98.9948 4.02141C102.243 5.59426 104.73 7.69956 106.495 10.3267L108.155 9.2115C106.17 6.25629 103.394 3.92977 99.8665 2.22137L98.9948 4.02141ZM106.5 10.334C108.277 12.9308 109.157 15.8412 109.137 19.0953L111.137 19.1077C111.16 15.4584 110.165 12.1472 108.15 9.20421L106.5 10.334ZM109.137 19.1073C109.157 22.541 108.098 25.3438 105.989 27.5895L107.446 28.9587C109.94 26.3038 111.16 22.9915 111.137 19.0957L109.137 19.1073ZM105.985 27.5929C103.869 29.8671 101.1 31.3294 97.6233 31.9561L97.978 33.9244C101.83 33.2301 105.006 31.5816 107.45 28.9553L105.985 27.5929ZM96.8007 32.9403V33.4516H98.8007V32.9403H96.8007ZM97.6734 34.4435C102.328 35.0409 105.749 36.6402 108.06 39.1472L109.53 37.7916C106.813 34.844 102.904 33.0982 97.9279 32.4598L97.6734 34.4435ZM108.065 39.1532C110.408 41.6535 111.586 44.7865 111.566 48.6275L113.566 48.638C113.589 44.3398 112.253 40.6972 109.525 37.7857L108.065 39.1532ZM111.566 48.6385C111.586 52.1558 110.576 55.2548 108.538 57.9724L110.138 59.1724C112.447 56.0946 113.589 52.5671 113.566 48.627L111.566 48.6385ZM108.535 57.9762C106.502 60.7148 103.677 62.8934 100.02 64.496L100.823 66.3278C104.751 64.6065 107.871 62.2255 110.141 59.1686L108.535 57.9762ZM100.02 64.496C96.375 66.0932 92.169 66.9048 87.3816 66.9048V68.9048C92.3954 68.9048 96.8826 68.0544 100.823 66.3278L100.02 64.496Z" fill="#E5FD57"/>
</svg>
