<svg width="115" height="69" viewBox="0 0 115 69" fill="none" xmlns="http://www.w3.org/2000/svg">
<path d="M26.8086 68.4497L26.8047 69.4497H26.8086V68.4497ZM12.6182 64.3907L12.0553 65.2172L12.0574 65.2187L12.6182 64.3907ZM3.50957 52.7253L2.58568 53.1079L2.58706 53.1112L3.50957 52.7253ZM0.377464 34.3481L1.37746 34.3511V34.3481H0.377464ZM3.54153 16.0988L2.62077 15.7087L2.61938 15.712L3.54153 16.0988ZM12.6502 4.62511L13.2039 5.45786L13.2049 5.45716L12.6502 4.62511ZM40.935 4.62511L40.3782 5.45578L40.3803 5.45716L40.935 4.62511ZM50.0756 16.1308L49.1549 16.5209L49.1555 16.5223L50.0756 16.1308ZM53.2397 34.3481L52.2397 34.3451V34.3481H53.2397ZM50.0437 52.7572L49.1211 52.3712L49.1198 52.3745L50.0437 52.7572ZM40.967 64.4227L41.5299 65.2492L40.967 64.4227ZM35.7894 51.319L36.6495 51.8292L35.7894 51.319ZM39.1133 34.3481H38.1133L38.1133 34.3509L39.1133 34.3481ZM37.5792 21.9476L36.6222 22.2377L36.6239 22.2434L37.5792 21.9476ZM33.2965 14.5008L32.6247 15.2416L32.629 15.2454L33.2965 14.5008ZM17.8597 17.601L17.0022 17.0865L17.8597 17.601ZM14.4719 34.3481L13.4719 34.3453V34.3481H14.4719ZM15.9741 46.9405L15.0155 47.2256L15.0177 47.2328L15.9741 46.9405ZM20.2887 54.4831L19.6164 55.2234L19.6211 55.2276L20.2887 54.4831ZM26.8124 67.4497C21.4836 67.429 16.9543 66.1202 13.1791 63.5628L12.0574 65.2187C16.2083 68.0306 21.1393 69.4277 26.8047 69.4497L26.8124 67.4497ZM13.1812 63.5642C9.42332 61.0048 6.50009 57.2818 4.43207 52.3393L2.58706 53.1112C4.78041 58.3533 7.92962 62.4073 12.0553 65.2172L13.1812 63.5642ZM4.43344 52.3426C2.38738 47.4031 1.35643 41.4156 1.37746 34.3511L-0.622532 34.3451C-0.64412 41.5988 0.412999 47.8628 2.58569 53.1079L4.43344 52.3426ZM1.37746 34.3481C1.37746 27.3041 2.4189 21.3601 4.46368 16.4857L2.61938 15.712C0.4454 20.8944 -0.622536 27.1166 -0.622536 34.3481H1.37746ZM4.46228 16.489C6.52862 11.6124 9.44909 7.95426 13.2039 5.45785L12.0965 3.79237C7.96776 6.53744 4.8158 10.5284 2.62077 15.7087L4.46228 16.489ZM13.2049 5.45716C16.9801 2.94035 21.4998 1.66204 26.8086 1.66204V-0.337959C21.1657 -0.337959 16.2464 1.02578 12.0955 3.79306L13.2049 5.45716ZM26.8086 1.66204C32.1175 1.66204 36.6254 2.94038 40.3782 5.45578L41.4918 3.79445C37.361 1.02574 32.4513 -0.337959 26.8086 -0.337959V1.66204ZM40.3803 5.45716C44.1579 7.97558 47.0889 11.6453 49.1549 16.5209L50.9964 15.7406C48.8009 10.5594 45.6382 6.55873 41.4897 3.79306L40.3803 5.45716ZM49.1555 16.5223C51.2193 21.3724 52.2607 27.3027 52.2397 34.3451L54.2397 34.3511C54.2613 27.118 53.1933 20.9034 50.9958 15.7392L49.1555 16.5223ZM52.2397 34.3481C52.2397 41.434 51.1878 47.4319 49.1212 52.3712L50.9662 53.1432C53.1609 47.8979 54.2397 41.623 54.2397 34.3481H52.2397ZM49.1198 52.3745C47.073 57.3156 44.1609 61.0374 40.404 63.5962L41.5299 65.2492C45.6565 62.4386 48.7955 58.3834 50.9675 53.1399L49.1198 52.3745ZM40.404 63.5962C36.6525 66.1513 32.1365 67.4497 26.8086 67.4497V69.4497C32.475 69.4497 37.3978 68.0635 41.5299 65.2492L40.404 63.5962ZM26.8086 57.976C30.9771 57.976 34.2682 55.8433 36.6495 51.8292L34.9293 50.8088C32.8361 54.3374 30.14 55.976 26.8086 55.976V57.976ZM36.6495 51.8292C39.0234 47.8275 40.1348 41.9544 40.1133 34.3453L38.1133 34.3509C38.1344 41.8271 37.0299 47.2679 34.9293 50.8088L36.6495 51.8292ZM40.1133 34.3481C40.1133 29.3231 39.5966 25.0818 38.5344 21.6517L36.6239 22.2434C37.6072 25.4184 38.1133 29.4442 38.1133 34.3481H40.1133ZM38.5361 21.6574C37.5013 18.2445 35.9968 15.5787 33.964 13.7562L32.629 15.2454C34.3036 16.7468 35.6542 19.0455 36.6222 22.2377L38.5361 21.6574ZM33.9683 13.7601C31.9504 11.9299 29.5477 11.0079 26.8086 11.0079V13.0079C29.0552 13.0079 30.9778 13.7479 32.6247 15.2415L33.9683 13.7601ZM26.8086 11.0079C22.6647 11.0079 19.3846 13.1158 17.0022 17.0865L18.7172 18.1155C20.8092 14.6288 23.4951 13.0079 26.8086 13.0079V11.0079ZM17.0022 17.0865C14.6277 21.0439 13.4934 26.8415 13.4719 34.3453L15.4719 34.351C15.493 26.9826 16.6173 21.6154 18.7172 18.1155L17.0022 17.0865ZM13.4719 34.3481C13.4719 39.4352 13.9776 43.7362 15.0156 47.2256L16.9325 46.6553C15.9677 43.4118 15.4719 39.3179 15.4719 34.3481H13.4719ZM15.0177 47.2328C16.0732 50.685 17.5867 53.3803 19.6164 55.2234L20.9609 53.7427C19.2833 52.2193 17.9204 49.8863 16.9304 46.6481L15.0177 47.2328ZM19.6211 55.2276C21.6586 57.0543 24.0697 57.976 26.8086 57.976V55.976C24.5617 55.976 22.6262 55.2357 20.9562 53.7385L19.6211 55.2276ZM62.1166 55.5058H61.1166V56.5058H62.1166V55.5058ZM62.1166 44.6074L61.2724 44.0714L61.1166 44.3168V44.6074H62.1166ZM89.4426 1.55693V0.556927H88.8929L88.5983 1.02102L89.4426 1.55693ZM98.8389 1.55693H99.8389V0.556927H98.8389V1.55693ZM98.8389 16.6422V17.6422H99.8389V16.6422H98.8389ZM93.2779 16.6422V15.6422H92.7268L92.4325 16.108L93.2779 16.6422ZM76.0513 43.9042L75.2059 43.3701L75.0513 43.6148V43.9042H76.0513ZM76.0513 44.4156H75.0513V45.4156H76.0513V44.4156ZM114.883 44.4156H115.883V43.4156H114.883V44.4156ZM114.883 55.5058V56.5058H115.883V55.5058H114.883ZM93.5335 67.0115H92.5335V68.0115H93.5335V67.0115ZM93.5335 52.1819L92.5349 52.129L92.5335 52.1555V52.1819H93.5335ZM93.7892 47.3559L94.7878 47.4088L94.7892 47.3824V47.3559H93.7892ZM93.7892 1.55693V0.556927H92.7892V1.55693H93.7892ZM106.765 1.55693H107.765V0.556927H106.765V1.55693ZM106.765 67.0115V68.0115H107.765V67.0115H106.765ZM63.1166 55.5058V44.6074H61.1166V55.5058H63.1166ZM62.9609 45.1433L90.2869 2.09283L88.5983 1.02102L61.2724 44.0714L62.9609 45.1433ZM89.4426 2.55693H98.8389V0.556927H89.4426V2.55693ZM97.8389 1.55693V16.6422H99.8389V1.55693H97.8389ZM98.8389 15.6422H93.2779V17.6422H98.8389V15.6422ZM92.4325 16.108L75.2059 43.3701L76.8967 44.4384L94.1232 17.1763L92.4325 16.108ZM75.0513 43.9042V44.4156H77.0513V43.9042H75.0513ZM76.0513 45.4156H114.883V43.4156H76.0513V45.4156ZM113.883 44.4156V55.5058H115.883V44.4156H113.883ZM114.883 54.5058H62.1166V56.5058H114.883V54.5058ZM94.5335 67.0115V52.1819H92.5335V67.0115H94.5335ZM94.5321 52.2348L94.7878 47.4088L92.7906 47.303L92.5349 52.129L94.5321 52.2348ZM94.7892 47.3559V1.55693H92.7892V47.3559H94.7892ZM93.7892 2.55693H106.765V0.556927H93.7892V2.55693ZM105.765 1.55693V67.0115H107.765V1.55693H105.765ZM106.765 66.0115H93.5335V68.0115H106.765V66.0115Z" fill="#E5FD57"/>
</svg>
