<svg width="276" height="218" viewBox="0 0 276 218" fill="none" xmlns="http://www.w3.org/2000/svg">
<g filter="url(#filter0_d_1_548)">
<path d="M185.516 72.9828C219.193 92.424 216.073 133.361 183.344 149.941C149.668 169.382 95.0686 169.382 61.3924 149.941C27.0061 131.157 25.5022 92.8648 59.1783 73.4236C92.8544 53.9823 151.84 53.5415 185.516 72.9828Z" fill="#1864F8"/>
</g>
<circle r="69.9668" transform="matrix(0.866044 -0.499967 0.866044 0.499967 122.368 106.513)" fill="#3383FF" stroke="url(#paint0_linear_1_548)" stroke-width="0.881429"/>
<g filter="url(#filter1_d_1_548)">
<path d="M103.527 114.828C50.6852 90.5345 68.5852 55.7524 84.1405 41.3981C99.4671 42.599 137.978 45.4127 169.409 47.0597C208.697 49.1185 210.413 111.054 192.57 118.088C174.727 125.122 177.644 127.181 103.527 114.828Z" fill="#337EFF"/>
</g>
<g filter="url(#filter2_b_1_548)">
<path d="M214.134 113.919L214.126 113.923L214.118 113.928C197.344 123.611 175.338 128.463 153.313 128.463C131.288 128.463 109.282 123.611 92.5087 113.928L92.5088 113.928L92.5017 113.924C75.3929 104.578 66.5097 90.4082 66.0497 76.2018C65.5897 61.999 73.5458 47.674 90.2946 38.0049C107.066 28.3226 130.168 23.3595 153.294 23.2495C176.42 23.1395 199.52 27.8829 216.29 37.564C233.027 47.2263 240.589 62.2056 239.934 76.8034C239.279 91.406 230.398 105.68 214.134 113.919Z" fill="white" fill-opacity="0.5" stroke="url(#paint1_linear_1_548)" stroke-width="0.686264"/>
</g>
<g filter="url(#filter3_b_1_548)">
<circle r="69.9668" transform="matrix(0.866044 -0.499967 0.866044 0.499967 153.314 70.7968)" fill="white" fill-opacity="0.5" stroke="url(#paint2_linear_1_548)" stroke-width="0.881429"/>
</g>
<g filter="url(#filter4_i_1_548)">
<path d="M149.841 84.3392C155.659 87.6978 164.835 87.8017 170.353 84.6161L181.629 78.1066C186.427 75.3366 186.248 70.7314 181.149 67.7882C175.691 64.6373 171.313 64.8797 166.515 66.1954L142.164 72.982C137.365 74.2978 133.047 74.5748 127.529 71.3892C122.491 68.4807 122.251 63.841 127.049 61.0709L138.325 54.5613C143.843 51.3758 153.02 51.4796 158.838 54.8383" stroke="#337EFF" stroke-width="8.52647" stroke-linecap="round" stroke-linejoin="round"/>
<path d="M127.349 54.042L181.33 85.2049" stroke="#337EFF" stroke-width="8.52647" stroke-linecap="round" stroke-linejoin="round"/>
</g>
<defs>
<filter id="filter0_d_1_548" x="11.2381" y="58.6204" width="221.638" height="158.787" filterUnits="userSpaceOnUse" color-interpolation-filters="sRGB">
<feFlood flood-opacity="0" result="BackgroundImageFix"/>
<feColorMatrix in="SourceAlpha" type="matrix" values="0 0 0 0 0 0 0 0 0 0 0 0 0 0 0 0 0 0 127 0" result="hardAlpha"/>
<feOffset dy="29.381"/>
<feGaussianBlur stdDeviation="11.7524"/>
<feComposite in2="hardAlpha" operator="out"/>
<feColorMatrix type="matrix" values="0 0 0 0 0.343982 0 0 0 0 0.567028 0 0 0 0 1 0 0 0 0.5 0"/>
<feBlend mode="normal" in2="BackgroundImageFix" result="effect1_dropShadow_1_548"/>
<feBlend mode="normal" in="SourceGraphic" in2="effect1_dropShadow_1_548" result="shape"/>
</filter>
<filter id="filter1_d_1_548" x="39.3588" y="31.1041" width="192.918" height="139.983" filterUnits="userSpaceOnUse" color-interpolation-filters="sRGB">
<feFlood flood-opacity="0" result="BackgroundImageFix"/>
<feColorMatrix in="SourceAlpha" type="matrix" values="0 0 0 0 0 0 0 0 0 0 0 0 0 0 0 0 0 0 127 0" result="hardAlpha"/>
<feOffset dy="18.5291"/>
<feGaussianBlur stdDeviation="14.4115"/>
<feComposite in2="hardAlpha" operator="out"/>
<feColorMatrix type="matrix" values="0 0 0 0 0.188235 0 0 0 0 0.220706 0 0 0 0 1 0 0 0 0.7 0"/>
<feBlend mode="normal" in2="BackgroundImageFix" result="effect1_dropShadow_1_548"/>
<feBlend mode="normal" in="SourceGraphic" in2="effect1_dropShadow_1_548" result="shape"/>
</filter>
<filter id="filter2_b_1_548" x="42.1829" y="-0.60029" width="221.638" height="152.911" filterUnits="userSpaceOnUse" color-interpolation-filters="sRGB">
<feFlood flood-opacity="0" result="BackgroundImageFix"/>
<feGaussianBlur in="BackgroundImageFix" stdDeviation="11.7524"/>
<feComposite in2="SourceAlpha" operator="in" result="effect1_backgroundBlur_1_548"/>
<feBlend mode="normal" in="SourceGraphic" in2="effect1_backgroundBlur_1_548" result="shape"/>
</filter>
<filter id="filter3_b_1_548" x="43.5761" y="-2.49037" width="219.476" height="146.574" filterUnits="userSpaceOnUse" color-interpolation-filters="sRGB">
<feFlood flood-opacity="0" result="BackgroundImageFix"/>
<feGaussianBlur in="BackgroundImageFix" stdDeviation="11.7524"/>
<feComposite in2="SourceAlpha" operator="in" result="effect1_backgroundBlur_1_548"/>
<feBlend mode="normal" in="SourceGraphic" in2="effect1_backgroundBlur_1_548" result="shape"/>
</filter>
<filter id="filter4_i_1_548" x="118.373" y="49.2288" width="71.9545" height="41.4061" filterUnits="userSpaceOnUse" color-interpolation-filters="sRGB">
<feFlood flood-opacity="0" result="BackgroundImageFix"/>
<feBlend mode="normal" in="SourceGraphic" in2="BackgroundImageFix" result="shape"/>
<feColorMatrix in="SourceAlpha" type="matrix" values="0 0 0 0 0 0 0 0 0 0 0 0 0 0 0 0 0 0 127 0" result="hardAlpha"/>
<feOffset dy="1.59537"/>
<feGaussianBlur stdDeviation="0.343132"/>
<feComposite in2="hardAlpha" operator="arithmetic" k2="-1" k3="1"/>
<feColorMatrix type="matrix" values="0 0 0 0 1 0 0 0 0 1 0 0 0 0 1 0 0 0 1 0"/>
<feBlend mode="normal" in2="shape" result="effect1_innerShadow_1_548"/>
</filter>
<linearGradient id="paint0_linear_1_548" x1="12.2012" y1="57.2774" x2="74.0218" y2="115.259" gradientUnits="userSpaceOnUse">
<stop stop-color="white" stop-opacity="0.43"/>
<stop offset="0.846595" stop-color="white" stop-opacity="0.44"/>
<stop offset="1" stop-color="white" stop-opacity="0"/>
</linearGradient>
<linearGradient id="paint1_linear_1_548" x1="80.8187" y1="65.9806" x2="123.304" y2="131.687" gradientUnits="userSpaceOnUse">
<stop stop-color="white" stop-opacity="0"/>
<stop offset="0.846595" stop-color="white" stop-opacity="0.06"/>
<stop offset="1" stop-color="white" stop-opacity="0.23"/>
</linearGradient>
<linearGradient id="paint2_linear_1_548" x1="12.2012" y1="57.2774" x2="74.0218" y2="115.259" gradientUnits="userSpaceOnUse">
<stop stop-color="white" stop-opacity="0.43"/>
<stop offset="0.846595" stop-color="white" stop-opacity="0.44"/>
<stop offset="1" stop-color="white" stop-opacity="0"/>
</linearGradient>
</defs>
</svg>
