<svg width="245" height="248" viewBox="0 0 245 248" fill="none" xmlns="http://www.w3.org/2000/svg">
<g filter="url(#filter0_bd_1_478)">
<path d="M191.276 165.301C190.509 165.744 189.567 166.085 188.518 166.278L154.698 172.489C145.098 174.249 136.475 174.984 128.33 174.742C110.509 174.217 93.7832 169.993 81.2382 162.837L39.9328 139.294C31.3586 134.606 33.0112 123.089 35.9837 119.524L63.6122 96.9324C65.175 95.0288 67.8735 93.4569 71.1843 92.512L126.041 76.747C132.174 74.978 139.505 75.62 144.261 78.3368L185.597 101.898C198.13 109.04 206.571 109.855 207.714 120.127C209.323 130.181 206.149 138.598 203.223 144.14L192.924 163.699C192.608 164.308 192.036 164.856 191.276 165.301Z" fill="#05D536" shape-rendering="crispEdges"/>
<path d="M191.451 165.401L191.45 165.402C190.657 165.86 189.681 166.213 188.592 166.413L154.773 172.624L154.698 172.489L154.773 172.624C145.151 174.389 136.498 175.127 128.317 174.884C110.437 174.357 93.6538 170.119 81.0652 162.938C81.0652 162.938 81.0651 162.938 81.0651 162.938L39.7634 139.397C39.7628 139.397 39.7622 139.396 39.7615 139.396C35.404 137.013 33.6699 132.914 33.3822 128.994C33.0942 125.071 34.2512 121.274 35.7618 119.462C35.7677 119.455 35.7746 119.449 35.7825 119.442L63.3988 96.8604C64.9872 94.9323 67.722 93.3416 71.0751 92.3846L125.931 76.6198L191.451 165.401ZM191.451 165.401C192.239 164.939 192.832 164.372 193.16 163.74C193.16 163.74 193.16 163.74 193.16 163.74L203.458 144.181C203.458 144.181 203.458 144.181 203.458 144.181C206.39 138.629 209.572 130.194 207.96 120.116C207.385 114.953 204.97 112.149 201.107 109.742C199.195 108.55 196.93 107.457 194.379 106.225L194.337 106.205C191.765 104.964 188.895 103.577 185.77 101.797L144.434 78.2357M191.451 165.401L144.434 78.2357M144.434 78.2357L144.434 78.2356C139.601 75.4748 132.156 74.8245 125.931 76.6197L144.434 78.2357Z" stroke="url(#paint0_linear_1_478)" stroke-width="0.402179" stroke-linecap="round" stroke-linejoin="round" shape-rendering="crispEdges"/>
</g>
<g filter="url(#filter1_b_1_478)">
<mask id="path-3-outside-1_1_478" maskUnits="userSpaceOnUse" x="10.9578" y="51.9328" width="234.698" height="135.491" fill="black">
<rect fill="white" x="10.9578" y="51.9328" width="234.698" height="135.491"/>
<path d="M191.275 155.163C190.509 155.606 189.566 155.947 188.517 156.139L154.698 162.351C145.098 164.111 136.475 164.845 128.329 164.604C110.509 164.079 93.7826 159.855 81.2376 152.699L39.9322 129.155C35.164 126.439 33.9718 122.218 36.9443 118.653L63.6116 86.7942C65.1744 84.8905 67.8729 83.3187 71.1837 82.3738L126.04 66.6087C132.174 64.8398 139.504 65.4818 144.26 68.1985L185.596 91.7595C198.129 98.9013 205.656 108.492 206.799 118.763C207.322 123.476 206.149 128.46 203.222 134.001L192.923 153.561C192.608 154.17 192.036 154.717 191.275 155.163Z"/>
</mask>
<path d="M191.275 155.163C190.509 155.606 189.566 155.947 188.517 156.139L154.698 162.351C145.098 164.111 136.475 164.845 128.329 164.604C110.509 164.079 93.7826 159.855 81.2376 152.699L39.9322 129.155C35.164 126.439 33.9718 122.218 36.9443 118.653L63.6116 86.7942C65.1744 84.8905 67.8729 83.3187 71.1837 82.3738L126.04 66.6087C132.174 64.8398 139.504 65.4818 144.26 68.1985L185.596 91.7595C198.129 98.9013 205.656 108.492 206.799 118.763C207.322 123.476 206.149 128.46 203.222 134.001L192.923 153.561C192.608 154.17 192.036 154.717 191.275 155.163Z" fill="url(#paint1_linear_1_478)"/>
<path d="M192.206 155.7C192.719 155.404 192.719 154.923 192.206 154.626C191.692 154.33 190.859 154.33 190.345 154.626L192.206 155.7ZM188.517 156.139L188.118 155.416L188.118 155.416L188.517 156.139ZM154.698 162.351L155.096 163.074L155.097 163.074L154.698 162.351ZM128.329 164.604L128.397 163.845L128.396 163.845L128.329 164.604ZM81.2376 152.699L82.1623 152.159L82.1619 152.158L81.2376 152.699ZM39.9322 129.155L40.8565 128.615L40.8563 128.615L39.9322 129.155ZM36.9443 118.653L35.7598 118.323L35.7589 118.324L36.9443 118.653ZM63.6116 86.7942L64.7962 87.1246L64.8004 87.1195L63.6116 86.7942ZM71.1837 82.3738L71.7667 83.0546L71.77 83.0537L71.1837 82.3738ZM126.04 66.6087L126.627 67.2886L126.628 67.2881L126.04 66.6087ZM144.26 68.1985L143.335 68.7384L143.336 68.739L144.26 68.1985ZM185.596 91.7595L184.672 92.3L184.672 92.3L185.596 91.7595ZM206.799 118.763L208.112 118.715L208.112 118.715L206.799 118.763ZM203.222 134.001L201.964 133.78L201.963 133.78L203.222 134.001ZM192.923 153.561L191.665 153.34L191.663 153.343L192.923 153.561ZM190.338 154.63C189.828 154.929 189.835 155.41 190.352 155.705C190.87 155.999 191.703 155.995 192.213 155.696L190.338 154.63ZM190.345 154.626C189.72 154.987 188.957 155.261 188.118 155.416L188.916 156.863C190.176 156.632 191.298 156.224 192.206 155.7L190.345 154.626ZM188.118 155.416L154.299 161.627L155.097 163.074L188.916 156.863L188.118 155.416ZM154.299 161.627C144.816 163.366 136.353 164.081 128.397 163.845L128.262 165.362C136.596 165.609 145.379 164.856 155.096 163.074L154.299 161.627ZM128.396 163.845C110.893 163.33 94.4741 159.182 82.1623 152.159L80.313 153.239C93.0911 160.528 110.124 164.828 128.262 165.362L128.396 163.845ZM82.1619 152.158L40.8565 128.615L39.0079 129.696L80.3133 153.239L82.1619 152.158ZM40.8563 128.615C36.5023 126.134 35.3924 122.265 38.1297 118.983L35.7589 118.324C32.5512 122.171 33.8257 126.743 39.008 129.696L40.8563 128.615ZM38.1288 118.984L64.7961 87.1246L62.427 86.4637L35.7598 118.323L38.1288 118.984ZM64.8004 87.1195C66.234 85.3732 68.7164 83.9252 71.7667 83.0546L70.6007 81.693C67.0293 82.7122 64.1148 84.4079 62.4228 86.4689L64.8004 87.1195ZM71.77 83.0537L126.627 67.2886L125.454 65.9288L70.5974 81.6939L71.77 83.0537ZM126.628 67.2881C132.273 65.66 138.992 66.2576 143.335 68.7384L145.186 67.6587C140.017 64.7059 132.074 64.0196 125.452 65.9293L126.628 67.2881ZM143.336 68.739L184.672 92.3L186.52 91.2191L145.185 67.6581L143.336 68.739ZM184.672 92.3C196.972 99.3091 204.364 108.724 205.487 118.812L208.112 118.715C206.949 108.26 199.286 98.4935 186.52 91.219L184.672 92.3ZM205.487 118.812C205.997 123.415 204.854 128.307 201.964 133.78L204.48 134.223C207.443 128.614 208.647 123.537 208.112 118.715L205.487 118.812ZM201.963 133.78L191.665 153.34L194.182 153.781L204.481 134.222L201.963 133.78ZM191.663 153.343C191.411 153.83 190.952 154.27 190.338 154.63L192.213 155.696C193.119 155.164 193.805 154.51 194.184 153.778L191.663 153.343Z" fill="url(#paint2_linear_1_478)" mask="url(#path-3-outside-1_1_478)"/>
</g>
<g filter="url(#filter2_d_1_478)">
<path d="M41.8266 83.5409L44.2985 82.1139C86.5984 57.6943 157.016 61.7035 190.238 90.4228L182.388 104.982C181.09 107.388 178.513 109.498 175.021 111.011L131.266 117.606C128.04 118.092 124.64 118.038 121.466 117.449L79.0638 109.579L41.8266 83.5409Z" fill="#27F171"/>
</g>
<g filter="url(#filter3_b_1_478)">
<path d="M180.19 111.911L180.188 111.912C179.395 112.37 178.419 112.723 177.33 112.923L143.511 119.134L143.437 118.999L143.511 119.134C133.889 120.899 125.236 121.637 117.055 121.394C99.1754 120.867 82.392 116.629 69.8034 109.448C69.8034 109.448 69.8034 109.448 69.8033 109.448L28.5016 85.907C28.501 85.9066 28.5004 85.9063 28.4998 85.9059C24.1423 83.5226 22.4082 79.4242 22.1204 75.5038C21.8324 71.5806 22.9894 67.784 24.5 65.9725C24.5059 65.9654 24.5128 65.9586 24.5207 65.9521L52.137 43.3704C53.7254 41.4423 56.4602 39.8516 59.8134 38.8946L114.669 23.1298L180.19 111.911ZM180.19 111.911C180.977 111.449 181.571 110.882 181.898 110.25C181.898 110.25 181.898 110.25 181.898 110.25L192.196 90.691C192.197 90.691 192.197 90.6909 192.197 90.6909C195.129 85.1392 198.31 76.7036 196.698 66.6258C196.123 61.4627 193.708 58.6591 189.846 56.252C187.933 55.0602 185.669 53.9671 183.117 52.7354L183.075 52.7155C180.504 51.4742 177.633 50.0875 174.508 48.3066L133.172 24.7457M180.19 111.911L133.172 24.7457M133.172 24.7457L133.172 24.7456C128.339 21.9848 120.894 21.3345 114.67 23.1297L133.172 24.7457Z" fill="white" fill-opacity="0.5" stroke="url(#paint3_linear_1_478)" stroke-width="0.402179" stroke-linecap="round" stroke-linejoin="round"/>
</g>
<g filter="url(#filter4_b_1_478)">
<mask id="path-7-outside-2_1_478" maskUnits="userSpaceOnUse" x="-0.303075" y="-1.5572" width="234.698" height="135.491" fill="black">
<rect fill="white" x="-0.303075" y="-1.5572" width="234.698" height="135.491"/>
<path d="M180.014 101.673C179.248 102.116 178.306 102.457 177.256 102.649L143.437 108.861C133.837 110.621 125.214 111.355 117.068 111.114C99.2477 110.589 82.5218 106.365 69.9768 99.209L28.6713 75.6655C23.9032 72.9488 22.7109 68.728 25.6834 65.1632L52.3507 33.3042C53.9136 31.4005 56.612 29.8287 59.9228 28.8838L114.78 13.1187C120.913 11.3498 128.244 11.9918 132.999 14.7085L174.335 38.2695C186.868 45.4113 194.396 55.0017 195.539 65.2735C196.062 69.9857 194.888 74.9702 191.961 80.5113L181.662 100.071C181.347 100.68 180.775 101.227 180.014 101.673Z"/>
</mask>
<path d="M180.014 101.673C179.248 102.116 178.306 102.457 177.256 102.649L143.437 108.861C133.837 110.621 125.214 111.355 117.068 111.114C99.2477 110.589 82.5218 106.365 69.9768 99.209L28.6713 75.6655C23.9032 72.9488 22.7109 68.728 25.6834 65.1632L52.3507 33.3042C53.9136 31.4005 56.612 29.8287 59.9228 28.8838L114.78 13.1187C120.913 11.3498 128.244 11.9918 132.999 14.7085L174.335 38.2695C186.868 45.4113 194.396 55.0017 195.539 65.2735C196.062 69.9857 194.888 74.9702 191.961 80.5113L181.662 100.071C181.347 100.68 180.775 101.227 180.014 101.673Z" fill="white" fill-opacity="0.5"/>
<path d="M180.945 102.21C181.458 101.914 181.458 101.433 180.945 101.136C180.431 100.84 179.598 100.84 179.084 101.136L180.945 102.21ZM177.256 102.649L176.857 101.926L176.857 101.926L177.256 102.649ZM143.437 108.861L143.835 109.584L143.836 109.584L143.437 108.861ZM117.068 111.114L117.136 110.355L117.135 110.355L117.068 111.114ZM69.9768 99.209L70.9014 98.6687L70.9011 98.6685L69.9768 99.209ZM28.6713 75.6655L29.5956 75.125L29.5954 75.1249L28.6713 75.6655ZM25.6834 65.1632L24.4989 64.8328L24.498 64.8338L25.6834 65.1632ZM52.3507 33.3042L53.5353 33.6346L53.5395 33.6295L52.3507 33.3042ZM59.9228 28.8838L60.5059 29.5646L60.5091 29.5637L59.9228 28.8838ZM114.78 13.1187L115.366 13.7986L115.368 13.7981L114.78 13.1187ZM132.999 14.7085L132.074 15.2484L132.075 15.249L132.999 14.7085ZM174.335 38.2695L173.411 38.81L173.411 38.81L174.335 38.2695ZM195.539 65.2735L196.851 65.2249L196.851 65.2248L195.539 65.2735ZM191.961 80.5113L190.703 80.2898L190.703 80.2904L191.961 80.5113ZM181.662 100.071L180.404 99.8497L180.402 99.8531L181.662 100.071ZM179.077 101.14C178.567 101.439 178.574 101.92 179.092 102.215C179.609 102.509 180.442 102.505 180.952 102.206L179.077 101.14ZM179.084 101.136C178.459 101.497 177.697 101.771 176.857 101.926L177.655 103.373C178.915 103.142 180.037 102.734 180.945 102.21L179.084 101.136ZM176.857 101.926L143.038 108.137L143.836 109.584L177.655 103.373L176.857 101.926ZM143.039 108.137C133.556 109.876 125.092 110.591 117.136 110.355L117.001 111.872C125.335 112.119 134.118 111.366 143.835 109.584L143.039 108.137ZM117.135 110.355C99.6326 109.84 83.2133 105.692 70.9014 98.6687L69.0521 99.7492C81.8302 107.038 98.8629 111.338 117.001 111.872L117.135 110.355ZM70.9011 98.6685L29.5956 75.125L27.747 76.2059L69.0525 99.7494L70.9011 98.6685ZM29.5954 75.1249C25.2415 72.6442 24.1315 68.7754 26.8688 65.4926L24.498 64.8338C21.2904 68.6806 22.5649 73.2534 27.7472 76.2061L29.5954 75.1249ZM26.868 65.4936L53.5353 33.6346L51.1662 32.9737L24.4989 64.8328L26.868 65.4936ZM53.5395 33.6295C54.9732 31.8832 57.4556 30.4352 60.5059 29.5646L59.3398 28.203C55.7685 29.2222 52.8539 30.9179 51.1619 32.9789L53.5395 33.6295ZM60.5091 29.5637L115.366 13.7986L114.193 12.4388L59.3365 28.2039L60.5091 29.5637ZM115.368 13.7981C121.013 12.17 127.731 12.7677 132.074 15.2484L133.925 14.1687C128.756 11.2159 120.813 10.5296 114.192 12.4393L115.368 13.7981ZM132.075 15.249L173.411 38.81L175.26 37.7291L133.924 14.1681L132.075 15.249ZM173.411 38.81C185.711 45.8191 193.103 55.2336 194.226 65.3222L196.851 65.2248C195.688 54.7698 188.025 45.0035 175.259 37.729L173.411 38.81ZM194.226 65.3221C194.736 69.9247 193.593 74.8166 190.703 80.2898L193.22 80.7328C196.182 75.1238 197.387 70.0467 196.851 65.2249L194.226 65.3221ZM190.703 80.2904L180.404 99.8497L182.921 100.291L193.22 80.7322L190.703 80.2904ZM180.402 99.8531C180.15 100.34 179.691 100.78 179.077 101.14L180.952 102.206C181.858 101.674 182.544 101.02 182.923 100.288L180.402 99.8531Z" fill="url(#paint4_linear_1_478)" mask="url(#path-7-outside-2_1_478)"/>
</g>
<g filter="url(#filter5_i_1_478)">
<path d="M100.644 74.9434L100.644 74.9437C100.616 76.9064 103.351 78.4653 106.759 78.433L100.644 74.9434ZM100.644 74.9434C100.665 72.9737 103.452 71.3447 106.865 71.3053L123.369 71.117L123.621 71.1141L123.623 70.9686L123.911 47.4123L100.644 74.9434ZM129.701 78.1747L106.759 78.433L123.911 47.4122C123.939 45.4385 126.726 43.8099 130.132 43.774C133.547 43.738 136.287 45.3004 136.254 47.2595L136.254 47.2599L135.923 74.5365L135.923 74.5366C135.912 75.5244 135.211 76.4204 134.083 77.0785C132.954 77.737 131.413 78.155 129.702 78.1747C129.702 78.1747 129.702 78.1747 129.701 78.1747Z" fill="#26F172" stroke="url(#paint5_linear_1_478)" stroke-width="0.422625"/>
</g>
<defs>
<filter id="filter0_bd_1_478" x="0.917381" y="65.8196" width="239.897" height="181.644" filterUnits="userSpaceOnUse" color-interpolation-filters="sRGB">
<feFlood flood-opacity="0" result="BackgroundImageFix"/>
<feGaussianBlur in="BackgroundImageFix" stdDeviation="4.82615"/>
<feComposite in2="SourceAlpha" operator="in" result="effect1_backgroundBlur_1_478"/>
<feColorMatrix in="SourceAlpha" type="matrix" values="0 0 0 0 0 0 0 0 0 0 0 0 0 0 0 0 0 0 127 0" result="hardAlpha"/>
<feOffset dy="40.2179"/>
<feGaussianBlur stdDeviation="16.0872"/>
<feComposite in2="hardAlpha" operator="out"/>
<feColorMatrix type="matrix" values="0 0 0 0 0.343982 0 0 0 0 1 0 0 0 0 0.448945 0 0 0 0.5 0"/>
<feBlend mode="normal" in2="effect1_backgroundBlur_1_478" result="effect2_dropShadow_1_478"/>
<feBlend mode="normal" in="SourceGraphic" in2="effect2_dropShadow_1_478" result="shape"/>
</filter>
<filter id="filter1_b_1_478" x="24.3576" y="55.2063" width="193.53" height="119.854" filterUnits="userSpaceOnUse" color-interpolation-filters="sRGB">
<feFlood flood-opacity="0" result="BackgroundImageFix"/>
<feGaussianBlur in="BackgroundImageFix" stdDeviation="4.82615"/>
<feComposite in2="SourceAlpha" operator="in" result="effect1_backgroundBlur_1_478"/>
<feBlend mode="normal" in="SourceGraphic" in2="effect1_backgroundBlur_1_478" result="shape"/>
</filter>
<filter id="filter2_d_1_478" x="26.0724" y="62.4938" width="179.92" height="83.3686" filterUnits="userSpaceOnUse" color-interpolation-filters="sRGB">
<feFlood flood-opacity="0" result="BackgroundImageFix"/>
<feColorMatrix in="SourceAlpha" type="matrix" values="0 0 0 0 0 0 0 0 0 0 0 0 0 0 0 0 0 0 127 0" result="hardAlpha"/>
<feOffset dy="12.1737"/>
<feGaussianBlur stdDeviation="7.8771"/>
<feComposite in2="hardAlpha" operator="out"/>
<feColorMatrix type="matrix" values="0 0 0 0 0 0 0 0 0 0.824769 0 0 0 0 0.300654 0 0 0 1 0"/>
<feBlend mode="normal" in2="BackgroundImageFix" result="effect1_dropShadow_1_478"/>
<feBlend mode="normal" in="SourceGraphic" in2="effect1_dropShadow_1_478" result="shape"/>
</filter>
<filter id="filter3_b_1_478" x="14.6689" y="14.8209" width="189.871" height="113.921" filterUnits="userSpaceOnUse" color-interpolation-filters="sRGB">
<feFlood flood-opacity="0" result="BackgroundImageFix"/>
<feGaussianBlur in="BackgroundImageFix" stdDeviation="3.5805"/>
<feComposite in2="SourceAlpha" operator="in" result="effect1_backgroundBlur_1_478"/>
<feBlend mode="normal" in="SourceGraphic" in2="effect1_backgroundBlur_1_478" result="shape"/>
</filter>
<filter id="filter4_b_1_478" x="8.42708" y="-2.95335" width="202.87" height="129.193" filterUnits="userSpaceOnUse" color-interpolation-filters="sRGB">
<feFlood flood-opacity="0" result="BackgroundImageFix"/>
<feGaussianBlur in="BackgroundImageFix" stdDeviation="7.161"/>
<feComposite in2="SourceAlpha" operator="in" result="effect1_backgroundBlur_1_478"/>
<feBlend mode="normal" in="SourceGraphic" in2="effect1_backgroundBlur_1_478" result="shape"/>
</filter>
<filter id="filter5_i_1_478" x="100.385" y="43.624" width="36.1283" height="35.769" filterUnits="userSpaceOnUse" color-interpolation-filters="sRGB">
<feFlood flood-opacity="0" result="BackgroundImageFix"/>
<feBlend mode="normal" in="SourceGraphic" in2="BackgroundImageFix" result="shape"/>
<feColorMatrix in="SourceAlpha" type="matrix" values="0 0 0 0 0 0 0 0 0 0 0 0 0 0 0 0 0 0 127 0" result="hardAlpha"/>
<feOffset dy="1.88334"/>
<feGaussianBlur stdDeviation="0.40507"/>
<feComposite in2="hardAlpha" operator="arithmetic" k2="-1" k3="1"/>
<feColorMatrix type="matrix" values="0 0 0 0 1 0 0 0 0 1 0 0 0 0 1 0 0 0 1 0"/>
<feBlend mode="normal" in2="shape" result="effect1_innerShadow_1_478"/>
</filter>
<linearGradient id="paint0_linear_1_478" x1="45.7094" y1="123.145" x2="211.534" y2="131.719" gradientUnits="userSpaceOnUse">
<stop stop-color="white" stop-opacity="0.25"/>
<stop offset="1" stop-color="white" stop-opacity="0"/>
</linearGradient>
<linearGradient id="paint1_linear_1_478" x1="67.0329" y1="84.0564" x2="128.878" y2="191.185" gradientUnits="userSpaceOnUse">
<stop stop-color="#24EF7F"/>
<stop offset="1" stop-color="#26F16D"/>
</linearGradient>
<linearGradient id="paint2_linear_1_478" x1="120.956" y1="107.251" x2="126.192" y2="169.956" gradientUnits="userSpaceOnUse">
<stop stop-color="white" stop-opacity="0.43"/>
<stop offset="0.846595" stop-color="white"/>
<stop offset="1" stop-color="white" stop-opacity="0"/>
</linearGradient>
<linearGradient id="paint3_linear_1_478" x1="34.4476" y1="69.6552" x2="200.272" y2="78.2293" gradientUnits="userSpaceOnUse">
<stop stop-color="white" stop-opacity="0.25"/>
<stop offset="1" stop-color="white" stop-opacity="0"/>
</linearGradient>
<linearGradient id="paint4_linear_1_478" x1="139.575" y1="114.77" x2="149.907" y2="28.1543" gradientUnits="userSpaceOnUse">
<stop stop-color="white" stop-opacity="0.79"/>
<stop offset="1" stop-color="white" stop-opacity="0"/>
</linearGradient>
<linearGradient id="paint5_linear_1_478" x1="96.4018" y1="65.9628" x2="140.709" y2="86.0086" gradientUnits="userSpaceOnUse">
<stop stop-color="white" stop-opacity="0.25"/>
<stop offset="1" stop-color="white" stop-opacity="0"/>
</linearGradient>
</defs>
</svg>
