<svg width="31" height="31" viewBox="0 0 31 31" fill="none" xmlns="http://www.w3.org/2000/svg">
<circle cx="15.9196" cy="15.6448" r="15" fill="#8247E5"/>
<path d="M20.6779 12.4927C20.3397 12.3003 19.905 12.3003 19.5185 12.4927L16.8133 14.0808L14.9776 15.0913L12.3206 16.6794C11.9825 16.8719 11.5477 16.8719 11.1613 16.6794L9.08401 15.4282C8.74586 15.2357 8.50432 14.8507 8.50432 14.4176V12.0115C8.50432 11.6265 8.69755 11.2416 9.08401 11.0009L11.1613 9.79789C11.4994 9.6054 11.9342 9.6054 12.3206 9.79789L14.3979 11.0491C14.736 11.2416 14.9776 11.6265 14.9776 12.0596V13.6477L16.8133 12.589V10.9528C16.8133 10.5678 16.62 10.1829 16.2336 9.94225L12.3689 7.6805C12.0308 7.48801 11.596 7.48801 11.2096 7.6805L7.24832 9.99037C6.86186 10.1829 6.66862 10.5678 6.66862 10.9528V15.4763C6.66862 15.8613 6.86186 16.2463 7.24832 16.4869L11.1613 18.7487C11.4994 18.9411 11.9342 18.9411 12.3206 18.7487L14.9776 17.2087L16.8133 16.15L19.4702 14.6101C19.8083 14.4176 20.2431 14.4176 20.6296 14.6101L22.7068 15.8132C23.045 16.0057 23.2865 16.3907 23.2865 16.8238V19.2299C23.2865 19.6149 23.0933 19.9998 22.7068 20.2404L20.6779 21.4435C20.3397 21.636 19.905 21.636 19.5185 21.4435L17.4413 20.2404C17.1031 20.048 16.8616 19.663 16.8616 19.2299V17.69L15.0259 18.7487V20.3367C15.0259 20.7217 15.2191 21.1066 15.6056 21.3473L19.5185 23.609C19.8567 23.8015 20.2914 23.8015 20.6779 23.609L24.5908 21.3473C24.929 21.1548 25.1705 20.7698 25.1705 20.3367V15.7651C25.1705 15.3801 24.9773 14.9951 24.5908 14.7545L20.6779 12.4927Z" fill="white"/>
<g clip-path="url(#clip0_1_377)">
<path d="M15.9201 3.24033C22.7589 3.24033 28.325 8.80503 28.325 15.6452C28.325 22.4854 22.7594 28.0488 15.9201 28.0488C9.08077 28.0488 3.5138 22.4845 3.5138 15.6452C3.5138 8.80594 9.07986 3.24033 15.9201 3.24033ZM15.9201 1.77994C8.26201 1.77994 2.05432 7.98717 2.05432 15.6452C2.05432 23.3033 8.26201 29.5096 15.9201 29.5096C23.5781 29.5096 29.7849 23.3024 29.7849 15.6452C29.7849 7.98808 23.5777 1.77994 15.9201 1.77994Z" fill="url(#paint0_linear_1_377)"/>
<path d="M28.9802 15.6789C28.9802 22.7987 23.2088 28.5702 16.0899 28.5702C8.97101 28.5702 3.1973 22.7987 3.1973 15.6789C3.1973 8.55912 8.96919 2.78723 16.0899 2.78723C23.2106 2.78723 28.9802 8.55912 28.9802 15.6789Z" fill="url(#paint1_linear_1_377)"/>
<path opacity="0.6" d="M27.9625 15.6939C27.9625 22.2514 22.6464 27.5665 16.0899 27.5665C9.5334 27.5665 4.21643 22.2509 4.21643 15.6939C4.21643 9.13699 9.53204 3.82138 16.0899 3.82138C22.6478 3.82138 27.9625 9.13744 27.9625 15.6939Z" fill="url(#paint2_radial_1_377)"/>
<path d="M20.7562 12.5009C20.4181 12.2928 19.9782 12.2928 19.6066 12.5009L16.9687 14.0977L15.1764 15.1388L12.5386 16.7355C12.2005 16.9436 11.7606 16.9436 11.389 16.7355L9.29211 15.4858C8.95399 15.2777 8.71704 14.8955 8.71704 14.4793V12.015C8.71704 11.5982 8.91991 11.2166 9.29211 11.0085L11.3549 9.79334C11.693 9.58523 12.1328 9.58523 12.5045 9.79334L14.5673 11.0085C14.9054 11.2166 15.1424 11.5987 15.1424 12.015V13.6117L16.9346 12.5355V10.9388C16.9346 10.522 16.7318 10.1404 16.3596 9.93226L12.5381 7.64144C12.1999 7.43332 11.7601 7.43332 11.3884 7.64144L7.49929 9.93226C7.1271 10.1404 6.92422 10.5225 6.92422 10.9388V15.5555C6.92422 15.9717 7.1271 16.3539 7.49929 16.562L11.3884 18.8528C11.7266 19.061 12.1664 19.061 12.5381 18.8528L15.1759 17.2907L16.9682 16.2145L19.6061 14.6523C19.9442 14.4442 20.384 14.4442 20.7557 14.6523L22.8184 15.8674C23.1566 16.0755 23.3935 16.4577 23.3935 16.8739V19.3383C23.3935 19.755 23.1906 20.1366 22.8184 20.3448L20.7557 21.5945C20.4175 21.8026 19.9777 21.8026 19.6061 21.5945L17.5433 20.3794C17.2051 20.1712 16.9682 19.7896 16.9682 19.3729V17.7761L15.1759 18.8523V20.4491C15.1759 20.8658 15.3788 21.2475 15.751 21.4556L19.6401 23.7464C19.9782 23.9545 20.4181 23.9545 20.7897 23.7464L24.6789 21.4556C25.017 21.2475 25.2534 20.8658 25.2534 20.4491V15.8323C25.2534 15.4156 25.0506 15.0339 24.6789 14.8258L20.7557 12.4999L20.7562 12.5009Z" fill="#7950DD"/>
</g>
<defs>
<linearGradient id="paint0_linear_1_377" x1="-1.61556" y1="-5.35444" x2="36.7371" y2="40.5743" gradientUnits="userSpaceOnUse">
<stop stop-color="#A5A7AA"/>
<stop offset="0.26" stop-color="#C3C4C6"/>
<stop offset="0.54" stop-color="#DBDCDD"/>
<stop offset="0.79" stop-color="#E9EBEB"/>
<stop offset="1" stop-color="#EFF0F0"/>
</linearGradient>
<linearGradient id="paint1_linear_1_377" x1="0.783802" y1="-2.64996" x2="29.8099" y2="32.1103" gradientUnits="userSpaceOnUse">
<stop stop-color="#FEFEFE"/>
<stop offset="0.17" stop-color="#FAFAFA"/>
<stop offset="0.33" stop-color="#EFEFEF"/>
<stop offset="0.48" stop-color="#DDDDDE"/>
<stop offset="0.62" stop-color="#C3C4C4"/>
<stop offset="0.76" stop-color="#A2A3A4"/>
<stop offset="0.9" stop-color="#7A7B7D"/>
<stop offset="1" stop-color="#58595B"/>
</linearGradient>
<radialGradient id="paint2_radial_1_377" cx="0" cy="0" r="1" gradientUnits="userSpaceOnUse" gradientTransform="translate(16.0895 15.6939) scale(11.8726)">
<stop stop-color="white"/>
<stop offset="0.52" stop-color="#FDFDFD"/>
<stop offset="0.7" stop-color="#F6F6F6"/>
<stop offset="0.84" stop-color="#EAEAEA"/>
<stop offset="0.94" stop-color="#D9D9D9"/>
<stop offset="1" stop-color="#CDCDCD"/>
</radialGradient>
<clipPath id="clip0_1_377">
<rect width="27.7306" height="27.7297" fill="white" transform="translate(2.05432 1.77994)"/>
</clipPath>
</defs>
</svg>
