<svg width="78" height="78" viewBox="0 0 78 78" fill="none" xmlns="http://www.w3.org/2000/svg">
<rect width="44.9748" height="44.9981" rx="22.4874" transform="matrix(0.93462 0.355649 -0.355218 0.934784 25.6543 9.67651)" fill="#87CC51"/>
<rect width="59.9664" height="59.9975" rx="29.9832" transform="matrix(0.93462 0.355649 -0.355218 0.934784 21.312 0)" fill="#87CC51" fill-opacity="0.3"/>
<path d="M34.1739 50.1485L42.8933 27.2028L44.363 27.762L35.6436 50.7078L34.1739 50.1485ZM44.3426 36.1566C44.5564 35.342 44.4356 34.5984 43.98 33.9257C43.5304 33.2554 42.8127 32.7326 41.8269 32.3575C41.1339 32.0938 40.4997 31.9721 39.9243 31.9926C39.349 32.013 38.8617 32.1525 38.4626 32.411C38.0635 32.6695 37.7736 33.0277 37.5927 33.4855C37.4474 33.8679 37.408 34.2325 37.4746 34.5793C37.5471 34.9284 37.6982 35.2594 37.928 35.5726C38.16 35.8797 38.4362 36.1695 38.7567 36.4419C39.0772 36.7144 39.4086 36.967 39.7509 37.1998L41.308 38.2848C41.9397 38.7099 42.523 39.1815 43.0578 39.6996C43.5986 40.22 44.0434 40.786 44.3923 41.3975C44.7472 42.0113 44.9616 42.6708 45.0355 43.376C45.1094 44.0813 44.9954 44.8313 44.6934 45.626C44.2846 46.7016 43.6499 47.5441 42.7892 48.1536C41.9307 48.7571 40.8943 49.0911 39.6799 49.1557C38.4738 49.2165 37.1359 48.9673 35.6662 48.408C34.2383 47.8647 33.0826 47.1718 32.1991 46.3295C31.3216 45.4895 30.7484 44.5327 30.4794 43.4591C30.2163 42.3878 30.2925 41.2335 30.7079 39.9964L33.9789 41.2411C33.7837 41.8986 33.7788 42.5055 33.9641 43.0616C34.1494 43.6177 34.4801 44.106 34.9562 44.5266C35.4384 44.9495 36.0259 45.2927 36.719 45.5565C37.4419 45.8315 38.116 45.965 38.7415 45.9567C39.3751 45.9448 39.9211 45.8037 40.3793 45.5335C40.8399 45.2574 41.173 44.8575 41.3788 44.334C41.5545 43.8536 41.564 43.4058 41.4072 42.9905C41.2527 42.5693 40.9673 42.1597 40.5509 41.7619C40.1428 41.3603 39.6419 40.9509 39.0483 40.5335L37.1646 39.2011C35.8006 38.2375 34.8294 37.1943 34.2509 36.0713C33.6806 34.9447 33.6453 33.724 34.1448 32.4094C34.5558 31.3279 35.2085 30.4922 36.1028 29.9023C37.0031 29.3147 38.0462 28.9901 39.2321 28.9284C40.4203 28.8607 41.6567 29.0713 42.9412 29.5601C44.2436 30.0557 45.2984 30.717 46.1057 31.544C46.9211 32.3673 47.4575 33.2861 47.7149 34.3005C47.9745 35.3089 47.9168 36.3335 47.5419 37.374L44.3426 36.1566Z" fill="white"/>
</svg>
