<svg width="58" height="51" viewBox="0 0 58 51" fill="none" xmlns="http://www.w3.org/2000/svg">
<path d="M43.7111 16.115C42.6692 15.5219 41.3296 15.5219 40.1388 16.115L31.8037 21.0079L26.1476 24.1216L17.9613 29.0146C16.9194 29.6077 15.5798 29.6077 14.3891 29.0146L7.98883 25.1595C6.94693 24.5665 6.20271 23.3803 6.20271 22.0458V14.6323C6.20271 13.4461 6.79808 12.2599 7.98883 11.5186L14.3891 7.81178C15.431 7.21869 16.7705 7.21869 17.9613 7.81178L24.3615 11.6668C25.4034 12.2599 26.1476 13.4461 26.1476 14.7805V19.6735L31.8037 16.4115V11.3703C31.8037 10.1841 31.2083 8.99795 30.0175 8.25659L18.1101 1.28783C17.0682 0.694746 15.7286 0.694746 14.5379 1.28783L2.3328 8.40486C1.14206 8.99795 0.546692 10.1841 0.546692 11.3703V25.3078C0.546692 26.494 1.14206 27.6802 2.3328 28.4215L14.3891 35.3903C15.431 35.9834 16.7705 35.9834 17.9613 35.3903L26.1476 30.6456L31.8037 27.3836L39.99 22.6389C41.0319 22.0458 42.3715 22.0458 43.5622 22.6389L49.9625 26.3457C51.0044 26.9388 51.7486 28.125 51.7486 29.4594V36.873C51.7486 38.0592 51.1532 39.2453 49.9625 39.9867L43.7111 43.6935C42.6692 44.2866 41.3296 44.2866 40.1388 43.6935L33.7386 39.9867C32.6967 39.3936 31.9525 38.2074 31.9525 36.873V32.1283L26.2965 35.3903V40.2832C26.2965 41.4694 26.8918 42.6556 28.0826 43.3969L40.1388 50.3657C41.1807 50.9588 42.5203 50.9588 43.7111 50.3657L55.7673 43.3969C56.8092 42.8038 57.5534 41.6177 57.5534 40.2832V26.1974C57.5534 25.0113 56.9581 23.8251 55.7673 23.0837L43.7111 16.115Z" fill="#8247E5"/>
</svg>
