<svg width="20" height="17" viewBox="0 0 20 17" fill="none" xmlns="http://www.w3.org/2000/svg">
<path d="M14.583 5.06134C14.2448 4.86885 13.8101 4.86885 13.4236 5.06134L10.7184 6.64938L8.88267 7.65995L6.22574 9.24799C5.88759 9.44048 5.45282 9.44048 5.06636 9.24799L2.98912 7.99681C2.65097 7.80432 2.40943 7.41934 2.40943 6.98624V4.58012C2.40943 4.19514 2.60266 3.81016 2.98912 3.56955L5.06636 2.36649C5.40451 2.174 5.83928 2.174 6.22574 2.36649L8.30298 3.61767C8.64113 3.81016 8.88267 4.19514 8.88267 4.62824V6.21628L10.7184 5.15759V3.52143C10.7184 3.13645 10.5251 2.75147 10.1387 2.51086L6.27405 0.249104C5.9359 0.0566139 5.50113 0.0566139 5.11466 0.249104L1.15342 2.55898C0.766962 2.75147 0.57373 3.13645 0.57373 3.52143V8.04493C0.57373 8.42991 0.766962 8.81489 1.15342 9.0555L5.06636 11.3173C5.40451 11.5097 5.83928 11.5097 6.22574 11.3173L8.88267 9.77734L10.7184 8.71865L13.3753 7.17873C13.7135 6.98624 14.1482 6.98624 14.5347 7.17873L16.6119 8.38179C16.9501 8.57428 17.1916 8.95926 17.1916 9.39236V11.7985C17.1916 12.1835 16.9984 12.5684 16.6119 12.809L14.583 14.0121C14.2448 14.2046 13.8101 14.2046 13.4236 14.0121L11.3464 12.809C11.0082 12.6166 10.7667 12.2316 10.7667 11.7985V10.2586L8.93098 11.3173V12.9053C8.93098 13.2903 9.12421 13.6753 9.51067 13.9159L13.4236 16.1776C13.7618 16.3701 14.1965 16.3701 14.583 16.1776L18.4959 13.9159C18.8341 13.7234 19.0756 13.3384 19.0756 12.9053V8.33367C19.0756 7.94869 18.8824 7.56371 18.4959 7.3231L14.583 5.06134Z" fill="white"/>
</svg>
