<svg width="104" height="29" viewBox="0 0 104 29" fill="none" xmlns="http://www.w3.org/2000/svg">
<path d="M84.2361 10.5699C83.9262 9.8812 83.4441 9.15806 82.8587 8.77927C82.17 8.26273 81.378 7.88394 80.3105 7.57402C78.9331 7.16079 76.9702 7.05749 74.6975 7.1608C74.1121 7.1608 73.5267 7.2641 72.9068 7.2641C72.3214 7.36741 71.736 7.36741 71.1162 7.47071C70.6341 7.57402 70.1176 7.57402 69.7388 7.67733V11.4652C70.1176 11.3619 70.6341 11.2586 71.0129 11.1553C71.5983 11.052 72.1837 10.9487 72.8035 10.8454C73.3889 10.7421 73.9743 10.7421 74.5942 10.6388C76.2815 10.5355 77.6589 10.5355 78.451 10.7421C79.0364 10.8454 79.5185 11.052 79.8284 11.2586C80.1383 11.4652 80.3105 11.7752 80.4138 12.154C80.5171 12.4639 80.6204 12.7394 80.6204 13.1526V13.4625L80.3105 13.3592C79.0364 12.946 77.4523 12.8427 75.6617 12.8427C74.1809 12.8427 73.0101 12.946 72.0115 13.1526C71.0129 13.3592 70.2209 13.6691 69.6354 14.0479C69.05 14.4611 68.6368 14.8399 68.4646 15.3565C68.258 15.873 68.1547 16.3551 68.1547 16.9405V17.2504C68.1547 17.8358 68.258 18.4557 68.5335 18.9378C68.7401 19.4543 69.1189 19.9364 69.7043 20.4529C70.2897 20.8662 71.0817 21.2449 72.0804 21.4516C73.079 21.7615 74.3531 21.8648 75.8339 21.8648C77.108 21.8648 78.3132 21.7615 79.2774 21.4516C80.276 21.2449 80.4482 21.1416 81.3435 20.7628C81.6535 20.5562 82.4111 20.4529 82.9276 20.6595L83.8229 21.1761H84.7182V12.7738C84.7182 12.2573 84.5116 11.3619 84.2361 10.5699ZM80.586 18.3868H80.3794C79.1052 18.8 77.7278 18.9722 76.1438 18.9722C75.2485 18.9722 74.4564 18.9722 73.9743 18.8689C73.4922 18.7656 73.079 18.7656 72.8035 18.559C72.4936 18.4557 72.3214 18.249 72.2181 18.0424C72.1148 17.8358 72.1148 17.6292 72.1148 17.457C72.1148 17.2849 72.1148 17.1471 72.2181 16.9405C72.3214 16.7339 72.528 16.5273 72.7002 16.424C72.9068 16.3207 73.2856 16.114 73.7677 16.114C74.2498 16.0107 74.9385 16.0107 75.7306 16.0107C76.6259 16.0107 77.4179 16.0107 78.2099 16.114C78.8986 16.2174 79.5873 16.3207 80.2761 16.5273H80.4827V18.3179H80.586V18.3868Z" fill="white"/>
<path d="M15.3306 8.95142C14.7452 8.36601 13.9532 7.84947 12.9545 7.43625C11.9559 7.02302 10.6818 6.85084 9.09775 6.85084C8.30573 6.85084 7.51371 6.95415 6.825 7.05746C6.13628 7.16076 5.44757 7.36738 4.75886 7.57399L4.44894 7.6773V2.27091L1.212 0.376953H0.419983V14.9776C0.419983 15.9763 0.523286 16.8716 0.798771 17.6636C1.00538 18.4556 1.48749 19.1788 2.07289 19.8675C2.6583 20.4529 3.45031 20.9694 4.44894 21.3827C5.44758 21.7959 6.72169 21.9681 8.30573 21.9681H9.09775C10.6818 21.9681 11.9559 21.7614 12.9545 21.3827C13.9532 21.0727 14.814 20.5906 15.4339 19.8675C16.0193 19.2821 16.4325 18.5589 16.708 17.6636C16.9146 16.7683 17.0868 15.873 17.0868 14.9776V13.8757C17.0868 12.8771 16.9835 11.9817 16.708 11.1897C16.3981 10.26 15.916 9.57125 15.3306 8.95142ZM12.8512 15.7697C12.8512 16.2862 12.6446 16.665 12.3691 17.0782C12.0592 17.3881 11.6804 17.6636 11.095 17.9735C10.5096 18.1801 9.71758 18.2835 8.71895 18.2835C7.72032 18.2835 6.92831 18.1801 6.3429 17.9735C5.7575 17.7669 5.34427 17.457 5.06879 17.0782C4.75887 16.665 4.68999 16.2862 4.58668 15.7697C4.58668 15.3564 4.48338 14.8743 4.48338 14.3578V11.2586H4.58668C5.17209 11.052 5.8608 10.8454 6.54952 10.7421C7.23823 10.6388 7.92694 10.5354 8.82227 10.5354C9.8209 10.5354 10.6129 10.6388 11.095 10.8454C11.5771 11.052 12.0936 11.3619 12.2658 11.6374C12.5757 12.0506 12.6446 12.4294 12.7479 12.9459C12.7479 13.3592 12.8512 13.8413 12.8512 14.3578C12.8512 14.8743 12.8512 15.3564 12.8512 15.7697Z" fill="white"/>
<path d="M21.9422 0.342529H21.7356C20.8403 0.342529 20.2548 0.549143 19.9449 0.859063C19.635 1.27229 19.4628 1.65108 19.4628 2.27092V2.58084C19.4628 3.09738 19.6694 3.57947 19.9449 3.9927C20.2548 4.40592 20.8403 4.50923 21.7356 4.50923H21.9422C22.8375 4.50923 23.4229 4.30262 23.7328 3.9927C24.0428 3.57947 24.1116 3.20068 24.1116 2.58084V2.27092C24.1116 1.75438 23.905 1.27229 23.6295 0.859063C23.4229 0.549143 22.8031 0.342529 21.9422 0.342529Z" fill="white"/>
<path d="M19.7728 7.4707V21.3827H23.905V9.36466L20.6681 7.4707H19.7728Z" fill="white"/>
<path d="M40.0553 14.1512C39.6765 13.8413 39.16 13.5658 38.6779 13.3592C38.1958 13.1526 37.6104 13.0493 36.9905 12.9459C36.5084 12.8426 35.923 12.7393 35.4065 12.7393C34.9244 12.7393 34.4079 12.7393 34.1324 12.636C32.9616 12.636 32.1696 12.5327 31.653 12.4294C30.861 12.2228 30.7577 11.844 30.7577 11.4308C30.7577 11.2242 30.7577 11.1209 30.861 11.0176C30.9643 10.9143 31.0676 10.7076 31.3431 10.6043C31.5497 10.501 31.9285 10.3977 32.3417 10.3977C32.7205 10.2944 33.3404 10.2944 34.1324 10.2944C35.3032 10.2944 36.5084 10.3977 37.5759 10.501C38.5746 10.6043 39.6421 10.8109 40.744 11.0176V7.50513C39.8487 7.29852 38.9534 7.0919 37.9892 6.9886C36.9905 6.88529 35.923 6.78198 34.9244 6.78198H33.9258C32.445 6.78198 31.2742 6.88529 30.2756 7.19521C29.3803 7.40182 28.5883 7.78062 28.0029 8.19384C27.4174 8.60707 27.0042 9.08916 26.832 9.6057C26.6254 10.1222 26.5221 10.7076 26.5221 11.293V11.603C26.5221 12.2917 26.6254 12.9115 26.9009 13.3936C27.2108 13.9101 27.4863 14.2889 27.8995 14.5989C28.2783 14.9088 28.7949 15.1843 29.277 15.3909C29.7591 15.5975 30.3445 15.7008 30.861 15.8041C31.4464 15.9074 31.9285 16.0107 32.445 16.0107C32.9271 16.0107 33.4437 16.114 33.8225 16.114C34.9933 16.114 35.7853 16.2173 36.3018 16.3206C37.0938 16.4239 37.3005 16.906 37.3005 17.3193C37.3005 17.4226 37.3005 17.6292 37.1972 17.7325C37.0938 17.8358 36.9905 18.0424 36.7151 18.1457C36.5084 18.249 36.1296 18.3523 35.7164 18.3523C35.3376 18.4556 34.7178 18.4556 34.0291 18.4556C32.8583 18.4556 31.4808 18.3523 30.1723 18.249C29.0015 18.1457 27.6929 17.9391 26.6254 17.6636V21.1761C27.6929 21.3827 28.6916 21.5893 29.7935 21.6926C30.861 21.7959 32.1696 21.8992 33.3404 21.8992H34.1324C35.6131 21.8992 36.7839 21.7959 37.6792 21.486C38.6779 21.2794 39.3666 20.9006 39.952 20.4873C40.5374 20.0741 40.8473 19.592 41.1228 19.0755C41.3294 18.5589 41.5016 17.9735 41.5016 17.3881V17.0782C41.5016 16.3895 41.3983 15.7697 41.1228 15.2876C40.744 14.8743 40.4685 14.4611 40.0553 14.1512Z" fill="white"/>
<path d="M60.1657 16.5617L56.6188 7.4707H53.4508L50.0072 16.5617L46.4604 7.4707H42.8102V8.36603L48.1477 21.3827H51.7979L55.0348 12.9804L58.2718 21.3827H61.9219L67.3283 8.36603V7.4707H63.5748L60.1657 16.5617Z" fill="white"/>
<path d="M103.348 11.3618C103.141 10.5698 102.659 9.84665 102.074 9.15794C101.488 8.57254 100.696 8.056 99.5944 7.64278C98.5957 7.22955 97.3216 7.05737 95.7376 7.05737H95.0489C93.4649 7.05737 92.1907 7.26399 91.1921 7.64278C90.1935 7.9527 89.4015 8.43479 88.8161 9.15794C88.2306 9.74334 87.8174 10.4665 87.5419 11.3618C87.3353 12.2571 87.1631 13.1525 87.1631 14.0478V28.6485H88.0585L91.2954 26.7545V21.3481L91.6053 21.4514C92.294 21.6581 92.8794 21.8647 93.6715 21.968C94.3602 22.0713 95.1522 22.1746 95.9442 22.1746C97.5283 22.1746 98.8024 21.968 99.801 21.5892C100.8 21.176 101.592 20.7972 102.177 20.074C102.762 19.4886 103.176 18.6622 103.451 17.8701C103.658 17.0781 103.83 16.1828 103.83 15.1842V14.0822C103.727 13.1525 103.623 12.2571 103.348 11.3618ZM99.5944 16.0795C99.5944 16.596 99.3878 16.9748 99.1123 17.388C98.8024 17.8013 98.4236 17.9735 97.9415 18.1801C97.4594 18.3867 96.6674 18.49 95.6687 18.49C94.8767 18.49 94.0847 18.3867 93.396 18.2834C92.7073 18.1801 92.0186 17.9734 91.4332 17.7668H91.3298V14.6676C91.3298 14.1511 91.3298 13.7723 91.4332 13.2558C91.4332 12.7392 91.6398 12.3605 91.9153 11.9472C92.2252 11.534 92.604 11.3618 93.1894 11.0519C93.7748 10.8453 94.5668 10.742 95.5654 10.742C96.5641 10.742 97.3561 10.8453 97.9415 11.0519C98.5269 11.2585 98.9401 11.5684 99.2156 11.9472C99.5255 12.3605 99.6977 12.7392 99.6977 13.2558C99.6977 13.669 99.801 14.1511 99.801 14.6676C99.5944 15.1842 99.5944 15.6663 99.5944 16.0795Z" fill="white"/>
</svg>
