<svg width="42" height="42" viewBox="0 0 42 42" fill="none" xmlns="http://www.w3.org/2000/svg">
<path d="M20.9849 42.0001C32.5597 42.0001 41.9698 32.62 41.9698 21.0152C41.9698 9.44041 32.5897 0.0302734 20.9849 0.0302734C9.41014 0.0302734 0 9.41034 0 21.0152C0 32.5899 9.38007 42.0001 20.9849 42.0001Z" fill="white"/>
<path d="M37.2196 7.90356C35.7765 8.20421 34.3635 8.59505 33.2211 8.86563C30.6055 9.43685 28.1702 11.4512 27.6592 15.0889C27.1781 18.366 28.2905 19.7489 27.8095 23.5671C26.9677 30.2113 20.594 32.4962 17.6177 33.8791C15.904 34.6608 11.7251 36.4947 8.50818 37.9078C11.9956 40.4933 16.2948 41.9965 20.9548 41.9965C32.5596 41.9965 41.9397 32.6164 41.9397 21.0116C41.9397 16.0811 40.226 11.5414 37.3699 7.9637C37.3399 7.93363 37.2797 7.93363 37.2196 7.90356Z" fill="url(#paint0_linear_102_121)"/>
<path d="M18.6098 17.9183C20.2333 14.4309 19.632 14.4309 20.8647 11.1238C22.3979 6.97492 27.2383 8.14743 28.5611 8.32782C30.7558 8.62846 31.327 7.84679 35.957 7.09518C36.1975 7.06511 36.4079 7.03505 36.6184 7.00498C32.7701 2.70579 27.2082 0 20.9849 0C12.627 0 5.44165 4.87042 2.04438 11.9355C8.95918 13.6793 16.4452 17.4072 18.6098 17.9183ZM14.0401 3.66785C14.6413 3.75804 17.6177 7.45595 18.1589 16.8961C18.1589 16.8961 14.3407 15.9942 13.529 14.01C12.8675 12.4166 13.7394 10.282 14.0401 3.66785ZM37.37 7.90691C37.37 7.93698 37.4 7.93698 37.4 7.93698C37.3399 7.93698 37.2798 7.93698 37.2497 7.90691C37.2798 7.90691 37.3099 7.90691 37.37 7.90691ZM0 21.015C0 19.3314 0.180387 17.7079 0.571223 16.1445C1.32283 16.7759 2.13457 17.4674 3.00643 18.2791C8.47815 23.36 17.3772 27.3585 20.5941 23.6306C20.5941 23.6306 20.6241 23.6306 20.6241 23.6606C20.0229 24.4423 17.768 26.9076 13.4688 26.1259L6.64422 36.3177C2.55547 32.4695 0 27.0579 0 21.015Z" fill="url(#paint1_linear_102_121)"/>
<defs>
<linearGradient id="paint0_linear_102_121" x1="28.4983" y1="12.4865" x2="23.5485" y2="39.7553" gradientUnits="userSpaceOnUse">
<stop stop-color="#EA4B6C"/>
<stop offset="1" stop-color="#E42848"/>
</linearGradient>
<linearGradient id="paint1_linear_102_121" x1="12.049" y1="31.6106" x2="22.993" y2="0.704612" gradientUnits="userSpaceOnUse">
<stop offset="0.00181229" stop-color="#335AA6"/>
<stop offset="1" stop-color="#3895D2"/>
</linearGradient>
</defs>
</svg>
