<svg width="25" height="25" viewBox="0 0 25 25" fill="none" xmlns="http://www.w3.org/2000/svg">
<g clip-path="url(#clip0_1_120)">
<path d="M12.7458 24.5129C19.3732 24.5129 24.7458 19.1404 24.7458 12.5129C24.7458 5.88552 19.3732 0.512939 12.7458 0.512939C6.11837 0.512939 0.745789 5.88552 0.745789 12.5129C0.745789 19.1404 6.11837 24.5129 12.7458 24.5129Z" fill="url(#paint0_linear_1_120)"/>
<path d="M18.5864 7.41768L16.4442 18.2224C16.4442 18.2224 16.1442 18.9724 15.3192 18.6114L10.3739 14.8192L8.57391 13.9521L5.54579 12.9349C5.54579 12.9349 5.08173 12.7708 5.03485 12.4099C4.98798 12.0489 5.55985 11.8567 5.55985 11.8567L17.5974 7.13643C17.5974 7.13174 18.5864 6.6958 18.5864 7.41768Z" fill="white"/>
<path d="M9.98954 18.1005C9.98954 18.1005 9.84423 18.0865 9.6661 17.5193C9.48798 16.9521 8.57391 13.9521 8.57391 13.9521L15.8442 9.33491C15.8442 9.33491 16.2661 9.08179 16.2474 9.33491C16.2474 9.33491 16.3224 9.38179 16.0974 9.58804C15.8724 9.79898 10.388 14.7302 10.388 14.7302" fill="#D2E4F0"/>
<path d="M12.2677 16.2723L10.313 18.0583C10.313 18.0583 10.1583 18.1754 9.99423 18.1004L10.3692 14.7864" fill="#B5CFE4"/>
</g>
<defs>
<linearGradient id="paint0_linear_1_120" x1="12.7458" y1="0.512939" x2="12.7458" y2="24.4254" gradientUnits="userSpaceOnUse">
<stop stop-color="#41BCE7"/>
<stop offset="1" stop-color="#22A6DC"/>
</linearGradient>
<clipPath id="clip0_1_120">
<rect width="24" height="24" fill="white" transform="translate(0.745789 0.512939)"/>
</clipPath>
</defs>
</svg>
